STARTFONT 2.3
FONT -FontForge-Syncopate-Book-R-Normal--24-240-72-72-P-180-ISO10646-1
SIZE 24 72 72  2
FONTBOUNDINGBOX 44 27 -5 -6
COMMENT "Generated by fontforge, http://fontforge.sourceforge.net"
COMMENT "Copyright (c) 2010 by Brian J. Bonislawsky DBA Astigmatic (AOETI). All rights reserved. Available under the Apache 2.0 licence.http://www.apache.org/licenses/LICENSE-2.0.html"
STARTPROPERTIES 40
FOUNDRY "FontForge"
FAMILY_NAME "Syncopate"
WEIGHT_NAME "Book"
SLANT "R"
SETWIDTH_NAME "Normal"
ADD_STYLE_NAME ""
PIXEL_SIZE 24
POINT_SIZE 240
RESOLUTION_X 72
RESOLUTION_Y 72
SPACING "P"
AVERAGE_WIDTH 180
CHARSET_REGISTRY "ISO10646"
CHARSET_ENCODING "1"
FONTNAME_REGISTRY ""
CHARSET_COLLECTIONS "ISO8859-2 ISO8859-9 ISO8859-4 ISO10646-1"
BITS_PER_PIXEL 2
FONT_NAME "Syncopate-Regular"
FACE_NAME "Syncopate Regular"
COPYRIGHT "Copyright (c) 2010 by Brian J. Bonislawsky DBA Astigmatic (AOETI). All rights reserved. Available under the Apache 2.0 licence.http://www.apache.org/licenses/LICENSE-2.0.html"
FONT_VERSION "001.001"
FONT_ASCENT 19
FONT_DESCENT 5
UNDERLINE_POSITION -2
UNDERLINE_THICKNESS 2
X_HEIGHT 15
CAP_HEIGHT 15
RAW_ASCENT 799
RAW_DESCENT 200
NORM_SPACE 9
RELATIVE_WEIGHT 40
RELATIVE_SETWIDTH 70
SUPERSCRIPT_X 0
SUPERSCRIPT_Y 6
SUPERSCRIPT_SIZE 4
SUBSCRIPT_X 0
SUBSCRIPT_Y 6
SUBSCRIPT_SIZE 4
AVG_LOWERCASE_WIDTH 206
AVG_UPPERCASE_WIDTH 197
ENDPROPERTIES
CHARS 370
STARTCHAR space
ENCODING 32
SWIDTH 375 0
DWIDTH 9 0
BBX 1 1 0 0
BITMAP
00
ENDCHAR
STARTCHAR exclam
ENCODING 33
SWIDTH 274 0
DWIDTH 7 0
BBX 3 16 2 0
BITMAP
B4
B4
B4
B0
B0
70
70
70
70
70
70
60
00
00
B4
B4
ENDCHAR
STARTCHAR quotedbl
ENCODING 34
SWIDTH 290 0
DWIDTH 7 0
BBX 5 5 1 11
BITMAP
D2C0
D1C0
D1C0
D1C0
D1C0
ENDCHAR
STARTCHAR numbersign
ENCODING 35
SWIDTH 701 0
DWIDTH 17 0
BBX 15 16 1 0
BITMAP
00280280
00240240
00340340
00300300
00700700
1FFFFFF8
00900900
00C00C00
01C01C00
02802800
BFFFFFD0
03003000
07007000
06006000
0A00A000
0D00D000
ENDCHAR
STARTCHAR dollar
ENCODING 36
SWIDTH 767 0
DWIDTH 18 0
BBX 15 18 2 -1
BITMAP
00060000
06FFE400
2D461A40
A0060090
D0060000
E0060000
78060000
1B9A0000
006F9000
00066E00
000606D0
00060070
00060034
00060034
800600B0
694616D0
06BFE900
00060000
ENDCHAR
STARTCHAR percent
ENCODING 37
SWIDTH 992 0
DWIDTH 24 0
BBX 21 16 1 0
BITMAP
07F90001D000
290740074000
7001C00E0000
A000D0280000
A000D0B00000
7001C1D00000
290747400000
07F90E000000
0000281BE400
0000B0741E00
0001D1D00740
000741C00280
000E01C00280
002801D00740
00B000741E00
01D0001BE400
ENDCHAR
STARTCHAR ampersand
ENCODING 38
SWIDTH 926 0
DWIDTH 22 0
BBX 19 16 2 0
BITMAP
006FE40000
02D01B0000
0700034000
0A00074000
07001E0000
0381B40000
01EF400000
01FC000000
0B5E0000A0
3802D000D0
A000B801C0
D0001E0280
D00002DB00
B400007D00
2E4006EB40
06BFF901E4
ENDCHAR
STARTCHAR quotesingle
ENCODING 39
SWIDTH 140 0
DWIDTH 3 0
BBX 2 5 1 11
BITMAP
D0
D0
D0
D0
D0
ENDCHAR
STARTCHAR parenleft
ENCODING 40
SWIDTH 420 0
DWIDTH 10 0
BBX 6 20 2 -2
BITMAP
0090
02D0
0B40
1D00
3800
7400
B000
A000
E000
D000
D000
E000
E000
B000
7400
3800
1D00
0B40
02D0
0090
ENDCHAR
STARTCHAR parenright
ENCODING 41
SWIDTH 420 0
DWIDTH 10 0
BBX 6 20 2 -2
BITMAP
2000
7800
1E00
0740
02C0
01D0
00E0
00B0
0070
0070
0070
0070
00B0
00E0
01D0
02C0
0740
1E00
7800
6000
ENDCHAR
STARTCHAR asterisk
ENCODING 42
SWIDTH 503 0
DWIDTH 12 0
BBX 10 9 1 7
BITMAP
00A000
10A000
78A2D0
1BAE40
01F800
1BAE40
78A2D0
10A000
00A000
ENDCHAR
STARTCHAR plus
ENCODING 43
SWIDTH 634 0
DWIDTH 15 0
BBX 12 11 2 2
BITMAP
003400
003400
003400
003400
003400
FFFFFD
003400
003400
003400
003400
003400
ENDCHAR
STARTCHAR comma
ENCODING 44
SWIDTH 185 0
DWIDTH 4 0
BBX 4 5 0 -2
BITMAP
2D
2C
38
34
70
ENDCHAR
STARTCHAR hyphen
ENCODING 45
SWIDTH 540 0
DWIDTH 13 0
BBX 9 1 2 7
BITMAP
FFFFC0
ENDCHAR
STARTCHAR period
ENCODING 46
SWIDTH 185 0
DWIDTH 4 0
BBX 3 3 1 0
BITMAP
B4
B4
B4
ENDCHAR
STARTCHAR slash
ENCODING 47
SWIDTH 500 0
DWIDTH 12 0
BBX 10 17 1 0
BITMAP
0000D0
0001C0
000380
000700
000A00
001C00
002800
007400
00A000
01D000
028000
034000
0A0000
0D0000
2C0000
340000
700000
ENDCHAR
STARTCHAR zero
ENCODING 48
SWIDTH 833 0
DWIDTH 20 0
BBX 18 16 1 0
BITMAP
001BFE4000
01B505E400
0740002D00
0D00000B40
2800000280
34000001C0
70000000D0
B0000000D0
B0000000D0
70000000D0
34000001C0
2800000280
1D00000B40
0740002D00
01B405E400
001BFE4000
ENDCHAR
STARTCHAR one
ENCODING 49
SWIDTH 339 0
DWIDTH 8 0
BBX 6 16 0 0
BITMAP
06D0
69D0
90D0
00D0
00D0
00D0
00D0
00D0
00D0
00D0
00D0
00D0
00D0
00D0
00D0
00D0
ENDCHAR
STARTCHAR two
ENCODING 50
SWIDTH 728 0
DWIDTH 17 0
BBX 15 16 1 0
BITMAP
02BFE400
69401B80
900000E0
00000074
00000038
00000038
00000074
000000E0
00000380
00001E00
0000B400
00078000
006D0000
02E00000
2E400000
FFFFFFFC
ENDCHAR
STARTCHAR three
ENCODING 51
SWIDTH 726 0
DWIDTH 17 0
BBX 15 16 1 0
BITMAP
02BFE900
29401B80
900000E0
00000070
00000070
000000E0
00005B40
007FF800
00005B80
000000B0
00000038
00000028
00000038
800000B0
79001B80
06FFE900
ENDCHAR
STARTCHAR four
ENCODING 52
SWIDTH 769 0
DWIDTH 18 0
BBX 18 16 0 0
BITMAP
000007E000
00001EA000
000078A000
0001E0A000
000780A000
000E00A000
003800A000
00F000A000
02C000A000
0B0000A000
2D0000A000
7FFFFFFFE0
000000A000
000000A000
000000A000
000000A000
ENDCHAR
STARTCHAR five
ENCODING 53
SWIDTH 738 0
DWIDTH 18 0
BBX 16 16 1 0
BITMAP
3FFFFFF0
38000000
38000000
38000000
38000000
38000000
3AFFE900
394016D0
00000074
0000002C
0000001D
0000001D
0000002C
50000074
2E4016D0
01BFE900
ENDCHAR
STARTCHAR six
ENCODING 54
SWIDTH 772 0
DWIDTH 19 0
BBX 17 16 1 0
BITMAP
001AFF9000
01A5006800
0740000000
0D00000000
2800000000
341AFE8000
74A401B800
7B40001E00
7800000700
7400000340
7400000380
3800000340
1D00000700
0B40001D00
01E401B400
001BFE4000
ENDCHAR
STARTCHAR seven
ENCODING 55
SWIDTH 669 0
DWIDTH 16 0
BBX 16 16 0 0
BITMAP
FFFFFFFD
00000038
000000B0
000001D0
00000280
00000740
00000E00
00002C00
00007400
0000E000
0002C000
00074000
000B0000
001D0000
00380000
00B00000
ENDCHAR
STARTCHAR eight
ENCODING 56
SWIDTH 793 0
DWIDTH 19 0
BBX 17 16 1 0
BITMAP
006FFE4000
079001B400
0D00001C00
1C00000D00
1D00000D00
0B40007800
02E516D000
002FFE4000
06E516E400
1E00002E00
7400000740
B000000280
B000000380
7800000B40
1F9001B900
01AFFE9000
ENDCHAR
STARTCHAR nine
ENCODING 57
SWIDTH 776 0
DWIDTH 19 0
BBX 16 16 1 0
BITMAP
01AFF900
0B9017D0
280000B4
7000002C
A000001E
E000000B
A000000B
B000001F
380000AB
0B50178B
01BFE40A
0000000D
00000028
000000B0
19401B80
06BFE400
ENDCHAR
STARTCHAR colon
ENCODING 58
SWIDTH 245 0
DWIDTH 6 0
BBX 2 11 2 0
BITMAP
F0
F0
F0
00
00
00
00
00
F0
F0
F0
ENDCHAR
STARTCHAR semicolon
ENCODING 59
SWIDTH 234 0
DWIDTH 6 0
BBX 3 13 1 -2
BITMAP
3C
3C
3C
00
00
00
00
00
38
78
74
B0
E0
ENDCHAR
STARTCHAR less
ENCODING 60
SWIDTH 634 0
DWIDTH 15 0
BBX 13 11 1 2
BITMAP
00000640
00006900
00079000
01B90000
1B800000
7D000000
1B800000
01B90000
00079000
00006900
00000640
ENDCHAR
STARTCHAR equal
ENCODING 61
SWIDTH 634 0
DWIDTH 15 0
BBX 12 5 2 5
BITMAP
FFFFFD
000000
000000
000000
FFFFFD
ENDCHAR
STARTCHAR greater
ENCODING 62
SWIDTH 634 0
DWIDTH 15 0
BBX 12 11 2 2
BITMAP
900000
6D0000
02E000
002E40
0001F4
00002D
0001F4
002E40
02E000
6D0000
900000
ENDCHAR
STARTCHAR question
ENCODING 63
SWIDTH 568 0
DWIDTH 14 0
BBX 11 16 1 0
BITMAP
06FA40
2906E0
500074
00002C
00002C
00002C
0000B4
0006E0
006E40
07E400
074000
074000
000000
000000
078000
078000
ENDCHAR
STARTCHAR at
ENCODING 64
SWIDTH 1016 0
DWIDTH 24 0
BBX 21 17 2 0
BITMAP
0006BFE90000
007E401B9000
02D000007400
0B0000001D00
2C00BFAC0B00
740790B80740
A00E00380340
E01C00340380
D02800340340
D02800700740
E02C00B00E00
A00E02F47800
7402FD1FE000
2C0000000000
0B4000024000
01F5006E0000
001AFFA40000
ENDCHAR
STARTCHAR A
ENCODING 65
SWIDTH 812 0
DWIDTH 20 0
BBX 19 16 0 0
BITMAP
00007C0000
0000ED0000
0001C70000
0003434000
000701C000
000D00E000
002C007000
0034002800
00A0001C00
00D0000A00
02FFFFFF40
0300000280
0A000000D0
1D000000A0
2800000074
7400000028
ENDCHAR
STARTCHAR B
ENCODING 66
SWIDTH 836 0
DWIDTH 20 0
BBX 17 16 2 0
BITMAP
7FFFFF9000
7400017800
7400001D00
7400000D00
7400000D00
7400001D00
7400017400
7FFFFFD000
7400006D00
7400000B40
7400000380
7400000380
7400000380
7400000740
7400006E00
7FFFFFA400
ENDCHAR
STARTCHAR C
ENCODING 67
SWIDTH 869 0
DWIDTH 21 0
BBX 19 16 1 0
BITMAP
0006BFE900
0079401690
0380000024
0E00000000
2C00000000
3800000000
7400000000
7000000000
7000000000
7400000000
3800000000
2C00000000
0E00000000
0380000024
00B9401690
0006BFE900
ENDCHAR
STARTCHAR D
ENCODING 68
SWIDTH 910 0
DWIDTH 22 0
BBX 19 16 2 0
BITMAP
7FFFFE9000
7400016D00
7400000740
74000001D0
74000000E0
74000000B0
7400000070
7400000074
7400000074
7400000074
74000000B0
74000000E0
74000001D0
7400000740
7400016D00
7FFFFE9000
ENDCHAR
STARTCHAR E
ENCODING 69
SWIDTH 754 0
DWIDTH 18 0
BBX 15 16 2 0
BITMAP
7FFFFFF0
74000000
74000000
74000000
74000000
74000000
74000000
7FFFFFE0
74000000
74000000
74000000
74000000
74000000
74000000
74000000
7FFFFFF4
ENDCHAR
STARTCHAR F
ENCODING 70
SWIDTH 687 0
DWIDTH 17 0
BBX 14 16 2 0
BITMAP
7FFFFFD0
74000000
74000000
74000000
74000000
74000000
74000000
7FFFFFC0
74000000
74000000
74000000
74000000
74000000
74000000
74000000
74000000
ENDCHAR
STARTCHAR G
ENCODING 71
SWIDTH 910 0
DWIDTH 22 0
BBX 19 16 1 0
BITMAP
0006BFE900
00794016D0
0390000014
0E00000000
2C00000000
3800000000
7400000000
7000000000
700003FFFC
740000002C
380000002C
2C0000002C
0E0000002C
03D000002C
00B94005B8
0006BFFA50
ENDCHAR
STARTCHAR H
ENCODING 72
SWIDTH 949 0
DWIDTH 23 0
BBX 18 16 2 0
BITMAP
7400000070
7400000070
7400000070
7400000070
7400000070
7400000070
7400000070
7FFFFFFFF0
7400000070
7400000070
7400000070
7400000070
7400000070
7400000070
7400000070
7400000070
ENDCHAR
STARTCHAR I
ENCODING 73
SWIDTH 287 0
DWIDTH 7 0
BBX 3 16 2 0
BITMAP
74
74
74
74
74
74
74
74
74
74
74
74
74
74
74
74
ENDCHAR
STARTCHAR J
ENCODING 74
SWIDTH 590 0
DWIDTH 14 0
BBX 12 16 0 0
BITMAP
00000E
00000E
00000E
00000E
00000E
00000E
00000E
00000E
00000E
00000E
00000E
00000D
00001D
000028
9401E0
5BFE40
ENDCHAR
STARTCHAR K
ENCODING 75
SWIDTH 806 0
DWIDTH 19 0
BBX 17 16 2 0
BITMAP
7400002D00
740001E000
74000B4000
7400780000
7406D00000
742E000000
75F4000000
7B80000000
76E0000000
747D000000
740B800000
7401F40000
74002E0000
740007D000
740000B800
7400001F40
ENDCHAR
STARTCHAR L
ENCODING 76
SWIDTH 701 0
DWIDTH 17 0
BBX 14 16 2 0
BITMAP
74000000
74000000
74000000
74000000
74000000
74000000
74000000
74000000
74000000
74000000
74000000
74000000
74000000
74000000
74000000
7FFFFFF0
ENDCHAR
STARTCHAR M
ENCODING 77
SWIDTH 1139 0
DWIDTH 27 0
BBX 23 16 2 0
BITMAP
780000000078
7D00000000F8
7B00000002A8
768000000368
75C000000A28
74A000001C28
743400003428
741C0000A028
740A0001C028
740340034028
7401C00A0028
7400A01D0028
740074280028
740028700028
74000ED00028
740007800028
ENDCHAR
STARTCHAR N
ENCODING 78
SWIDTH 936 0
DWIDTH 22 0
BBX 18 16 2 0
BITMAP
78000000A0
7E000000A0
77800000A0
74E00000A0
74380000A0
741E0000A0
74078000A0
7401E000A0
74007800A0
74001E00A0
74000780A0
740001E0A0
74000074A0
7400001DA0
74000007E0
74000001E0
ENDCHAR
STARTCHAR O
ENCODING 79
SWIDTH 983 0
DWIDTH 24 0
BBX 21 16 1 0
BITMAP
0006BFE90000
00B94016D000
078000007800
0E0000000E00
2C0000000740
380000000380
7400000002C0
7000000002C0
7000000002C0
7400000002C0
380000000380
2C0000000740
0E0000000E00
078000007800
00B94016D000
0006FFE90000
ENDCHAR
STARTCHAR P
ENCODING 80
SWIDTH 818 0
DWIDTH 20 0
BBX 17 16 2 0
BITMAP
7FFFFF9000
7400016C00
7400000A00
7400000740
7400000340
7400000340
7400000740
7400000A00
7400007C00
7FFFFF9000
7400000000
7400000000
7400000000
7400000000
7400000000
7400000000
ENDCHAR
STARTCHAR Q
ENCODING 81
SWIDTH 983 0
DWIDTH 24 0
BBX 23 16 1 0
BITMAP
0006BFE90000
00B94016D000
078000007800
0E0000000E00
2C0000000740
380000000380
7400000002C0
7000000002C0
7000000002C0
7400000002C0
380000000380
2C0000000740
0E0000A40E00
0780002FB800
00B9401BAF90
0006FFE901B4
ENDCHAR
STARTCHAR R
ENCODING 82
SWIDTH 833 0
DWIDTH 20 0
BBX 17 16 2 0
BITMAP
7FFFFE8000
740001B400
7400001D00
7400000E00
7400000E00
7400000D00
7400001D00
740001B400
7FFFFF9000
74000B4000
740002C000
740000E000
7400007400
7400002D00
7400000B00
7400000380
ENDCHAR
STARTCHAR S
ENCODING 83
SWIDTH 787 0
DWIDTH 19 0
BBX 15 16 2 0
BITMAP
06BFE400
2E401680
B0000060
E0000000
E0000000
78000000
1B900000
006F9000
00016E40
000001E0
00000038
0000002C
0000002C
80000078
694006E0
02BFF900
ENDCHAR
STARTCHAR T
ENCODING 84
SWIDTH 708 0
DWIDTH 17 0
BBX 17 16 0 0
BITMAP
BFFFFFFF80
0001D00000
0001D00000
0001D00000
0001D00000
0001D00000
0001D00000
0001D00000
0001D00000
0001D00000
0001D00000
0001D00000
0001D00000
0001D00000
0001D00000
0001D00000
ENDCHAR
STARTCHAR U
ENCODING 85
SWIDTH 891 0
DWIDTH 21 0
BBX 17 16 2 0
BITMAP
7000000280
7000000280
7000000280
7000000280
7000000280
7000000280
7000000280
7000000280
7000000280
7000000280
7000000280
7000000280
3400000340
2D00000B00
079401B800
006FFE9000
ENDCHAR
STARTCHAR V
ENCODING 86
SWIDTH 817 0
DWIDTH 20 0
BBX 18 16 1 0
BITMAP
E0000000E0
B0000001D0
3800000380
2C00000740
0E00000E00
0B00001D00
0380003800
02C0007400
00E000E000
00B001D000
0038038000
002C070000
000E0E0000
000B1C0000
0003B80000
0002F00000
ENDCHAR
STARTCHAR W
ENCODING 87
SWIDTH 1266 0
DWIDTH 30 0
BBX 29 16 1 0
BITMAP
E000003D00000740
B000007E00000B00
380000A700000D00
2C0000D380002C00
1D0002C2C0003800
0E000381D0007400
07000740E000B000
03400B007000D000
02C00D003401C000
01D01C0028038000
00E028001D074000
007074000E0B0000
0034B0000B0D0000
002CE000035C0000
001EC00002B80000
000B800001F40000
ENDCHAR
STARTCHAR X
ENCODING 88
SWIDTH 821 0
DWIDTH 20 0
BBX 18 16 1 0
BITMAP
3800000380
1E00000E00
0780003800
01E000F000
007802C000
001E0B0000
0007AC0000
0001F40000
0002B40000
000A1D0000
002C074000
00B001D000
02D0007400
0B40001D00
1D00000B40
74000002D0
ENDCHAR
STARTCHAR Y
ENCODING 89
SWIDTH 763 0
DWIDTH 18 0
BBX 16 16 1 0
BITMAP
B000000B
3800002D
0E000074
074001E0
01D00380
00B40B00
002C2D00
000E7400
0007D000
0002C000
0002C000
0002C000
0002C000
0002C000
0002C000
0002C000
ENDCHAR
STARTCHAR Z
ENCODING 90
SWIDTH 728 0
DWIDTH 17 0
BBX 15 16 1 0
BITMAP
3FFFFFF8
000000F0
000002C0
00000B40
00002D00
00007800
0001E000
0003C000
000B0000
002D0000
00740000
01E00000
03800000
0F000000
2C000000
7FFFFFFC
ENDCHAR
STARTCHAR bracketleft
ENCODING 91
SWIDTH 409 0
DWIDTH 10 0
BBX 6 18 3 -1
BITMAP
FFE0
D000
D000
D000
D000
D000
D000
D000
D000
D000
D000
D000
D000
D000
D000
D000
D000
FFE0
ENDCHAR
STARTCHAR backslash
ENCODING 92
SWIDTH 500 0
DWIDTH 12 0
BBX 10 17 1 0
BITMAP
700000
340000
2C0000
0D0000
0A0000
034000
028000
01D000
00A000
007400
002800
001C00
000E00
000700
000380
0001C0
0000D0
ENDCHAR
STARTCHAR bracketright
ENCODING 93
SWIDTH 409 0
DWIDTH 10 0
BBX 6 18 1 -1
BITMAP
BFE0
00A0
00A0
00A0
00A0
00A0
00A0
00A0
00A0
00A0
00A0
00A0
00A0
00A0
00A0
00A0
00A0
BFE0
ENDCHAR
STARTCHAR asciicircum
ENCODING 94
SWIDTH 459 0
DWIDTH 11 0
BBX 9 7 1 9
BITMAP
02E000
03B400
0A2800
1D1D00
380B00
700340
E002C0
ENDCHAR
STARTCHAR underscore
ENCODING 95
SWIDTH 500 0
DWIDTH 12 0
BBX 12 1 0 -3
BITMAP
FFFFFF
ENDCHAR
STARTCHAR grave
ENCODING 96
SWIDTH 527 0
DWIDTH 13 0
BBX 6 3 2 13
BITMAP
6400
6E40
01A0
ENDCHAR
STARTCHAR a
ENCODING 97
SWIDTH 888 0
DWIDTH 21 0
BBX 18 16 1 0
BITMAP
001BFF9000
06A4016E00
0900000280
00000000D0
00000000A0
00000000A0
00005AAFE0
006FE950A0
07E40000A0
2D000000A0
74000000A0
70000000A0
70000000A0
38000006E0
1F5005B9A0
01BFFA40A0
ENDCHAR
STARTCHAR b
ENCODING 98
SWIDTH 836 0
DWIDTH 20 0
BBX 17 16 2 0
BITMAP
7FFFFF9000
7400017800
7400001D00
7400000D00
7400000D00
7400001D00
7400017400
7FFFFFD000
7400006D00
7400000B40
7400000380
7400000380
7400000380
7400000740
7400006E00
7FFFFFA400
ENDCHAR
STARTCHAR c
ENCODING 99
SWIDTH 869 0
DWIDTH 21 0
BBX 19 16 1 0
BITMAP
0006BFE900
0079401690
0380000024
0E00000000
2C00000000
3800000000
7400000000
7000000000
7000000000
7400000000
3800000000
2C00000000
0E00000000
0380000024
00B9401690
0006BFE900
ENDCHAR
STARTCHAR d
ENCODING 100
SWIDTH 910 0
DWIDTH 22 0
BBX 19 16 2 0
BITMAP
7FFFFE9000
7400016D00
7400000740
74000001D0
74000000E0
74000000B0
7400000070
7400000074
7400000074
7400000074
74000000B0
74000000E0
74000001D0
7400000740
7400016D00
7FFFFE9000
ENDCHAR
STARTCHAR e
ENCODING 101
SWIDTH 910 0
DWIDTH 22 0
BBX 20 16 1 0
BITMAP
0006FFA400
00B9006E40
03800002D0
0E000000B0
2C00000038
340000001C
740000001C
7FFFFFFFFD
7400000000
7400000000
3800000000
2D00000000
0F00000000
03D0000060
00BD401690
0006BFE400
ENDCHAR
STARTCHAR f
ENCODING 102
SWIDTH 817 0
DWIDTH 20 0
BBX 17 16 2 0
BITMAP
006FFFFF40
0B94000000
2D00000000
3800000000
7400000000
7400000000
7400000000
7FFFFFFF00
7400000000
7400000000
7400000000
7400000000
7400000000
7400000000
7400000000
7400000000
ENDCHAR
STARTCHAR g
ENCODING 103
SWIDTH 910 0
DWIDTH 22 0
BBX 19 16 1 0
BITMAP
0006BFE900
00794016D0
0390000014
0E00000000
2C00000000
3800000000
7400000000
7000000000
700003FFFC
740000002C
380000002C
2C0000002C
0E0000002C
03D000002C
00B94005B8
0006BFFA50
ENDCHAR
STARTCHAR h
ENCODING 104
SWIDTH 949 0
DWIDTH 23 0
BBX 18 16 2 0
BITMAP
7400000070
7400000070
7400000070
7400000070
7400000070
7400000070
7400000070
7FFFFFFFF0
7400000070
7400000070
7400000070
7400000070
7400000070
7400000070
7400000070
7400000070
ENDCHAR
STARTCHAR i
ENCODING 105
SWIDTH 287 0
DWIDTH 7 0
BBX 3 16 2 0
BITMAP
74
74
74
74
74
74
74
74
74
74
74
74
74
74
74
74
ENDCHAR
STARTCHAR j
ENCODING 106
SWIDTH 590 0
DWIDTH 14 0
BBX 12 16 0 0
BITMAP
00000E
00000E
00000E
00000E
00000E
00000E
00000E
00000E
00000E
00000E
00000E
00000D
00001D
000028
9401E0
5BFE40
ENDCHAR
STARTCHAR k
ENCODING 107
SWIDTH 867 0
DWIDTH 21 0
BBX 18 16 2 0
BITMAP
7400000740
7400000B00
7400000E00
7400002C00
740000B000
7400078000
7405B90000
7FFFD00000
7401AE4000
740006E000
7400007800
7400001E00
7400000740
7400000280
74000001C0
74000001D0
ENDCHAR
STARTCHAR l
ENCODING 108
SWIDTH 709 0
DWIDTH 17 0
BBX 15 16 2 0
BITMAP
74000000
74000000
74000000
74000000
74000000
74000000
74000000
74000000
74000000
74000000
74000000
74000000
34000000
28000000
1E400000
02BFFFF8
ENDCHAR
STARTCHAR m
ENCODING 109
SWIDTH 1246 0
DWIDTH 30 0
BBX 26 16 2 0
BITMAP
741BF8006FE400
74A41B42901A00
764002DD000380
780000F40001C0
740000E00001D0
740000A00001D0
740000A00001D0
740000A00001D0
740000A00001D0
740000A00001D0
740000A00001D0
740000A00001D0
740000A00001D0
740000A00001D0
740000A00001D0
740000A00001D0
ENDCHAR
STARTCHAR n
ENCODING 110
SWIDTH 933 0
DWIDTH 22 0
BBX 18 16 2 0
BITMAP
7401BFE400
746E401B40
76D00002C0
7E000000D0
74000000A0
74000000A0
74000000A0
74000000A0
74000000A0
74000000A0
74000000A0
74000000A0
74000000A0
74000000A0
74000000A0
74000000A0
ENDCHAR
STARTCHAR o
ENCODING 111
SWIDTH 983 0
DWIDTH 24 0
BBX 21 16 1 0
BITMAP
0006BFE90000
00B94016D000
078000007800
0E0000000E00
2C0000000740
380000000380
7400000002C0
7000000002C0
7000000002C0
7400000002C0
380000000380
2C0000000740
0E0000000E00
078000007800
00B94016D000
0006FFE90000
ENDCHAR
STARTCHAR p
ENCODING 112
SWIDTH 818 0
DWIDTH 20 0
BBX 17 16 2 0
BITMAP
7FFFFF9000
7400016C00
7400000A00
7400000740
7400000340
7400000340
7400000740
7400000A00
7400007C00
7FFFFF9000
7400000000
7400000000
7400000000
7400000000
7400000000
7400000000
ENDCHAR
STARTCHAR q
ENCODING 113
SWIDTH 983 0
DWIDTH 24 0
BBX 22 16 1 0
BITMAP
0006BFE90000
00B94016D000
078000007800
0E0000000E00
2C0000000740
380000000380
7400000002C0
7000000002C0
7000000002C0
7400000002C0
380000000380
2C0000000740
0E0000000E00
078000007800
00B94016FE50
0006FFE906B0
ENDCHAR
STARTCHAR r
ENCODING 114
SWIDTH 609 0
DWIDTH 15 0
BBX 13 16 2 0
BITMAP
7406BF80
74690040
76D00000
7A000000
78000000
74000000
74000000
74000000
74000000
74000000
74000000
74000000
74000000
74000000
74000000
74000000
ENDCHAR
STARTCHAR s
ENCODING 115
SWIDTH 787 0
DWIDTH 19 0
BBX 15 16 2 0
BITMAP
06BFE400
2E401680
B0000060
E0000000
E0000000
78000000
1B900000
006F9000
00016E40
000001E0
00000038
0000002C
0000002C
80000078
694006E0
02BFF900
ENDCHAR
STARTCHAR t
ENCODING 116
SWIDTH 708 0
DWIDTH 17 0
BBX 17 16 0 0
BITMAP
BFFFFFFF80
0001D00000
0001D00000
0001D00000
0001D00000
0001D00000
0001D00000
0001D00000
0001D00000
0001D00000
0001D00000
0001D00000
0001D00000
0001D00000
0001D00000
0001D00000
ENDCHAR
STARTCHAR u
ENCODING 117
SWIDTH 931 0
DWIDTH 22 0
BBX 18 16 2 0
BITMAP
70000000E0
70000000E0
70000000E0
70000000E0
70000000E0
70000000E0
70000000E0
70000000E0
70000000E0
70000000E0
70000000E0
74000000E0
34000007E0
2C000069E0
0B401B90E0
01BFE500E0
ENDCHAR
STARTCHAR v
ENCODING 118
SWIDTH 817 0
DWIDTH 20 0
BBX 18 16 1 0
BITMAP
E0000000E0
B0000001D0
3800000380
2C00000740
0E00000E00
0B00001D00
0380003800
02C0007400
00E000E000
00B001D000
0038038000
002C070000
000E0E0000
000B1C0000
0003B80000
0002F00000
ENDCHAR
STARTCHAR w
ENCODING 119
SWIDTH 1266 0
DWIDTH 30 0
BBX 29 16 1 0
BITMAP
E000003D00000740
B000007E00000B00
380000A700000D00
2C0000D380002C00
1D0002C2C0003800
0E000381D0007400
07000740E000B000
03400B007000D000
02C00D003401C000
01D01C0028038000
00E028001D074000
007074000E0B0000
0034B0000B0D0000
002CE000035C0000
001EC00002B80000
000B800001F40000
ENDCHAR
STARTCHAR x
ENCODING 120
SWIDTH 821 0
DWIDTH 20 0
BBX 18 16 1 0
BITMAP
3800000380
1E00000E00
0780003800
01E000F000
007802C000
001E0B0000
0007AC0000
0001F40000
0002B40000
000A1D0000
002C074000
00B001D000
02D0007400
0B40001D00
1D00000B40
74000002D0
ENDCHAR
STARTCHAR y
ENCODING 121
SWIDTH 911 0
DWIDTH 22 0
BBX 17 16 2 0
BITMAP
E0000001C0
E0000001C0
E0000001C0
E0000001C0
A0000001C0
A0000002C0
70000007C0
34000019C0
1D000061C0
07900781C0
00AFE801C0
00000002C0
0000000740
9000002E00
6E4006F400
01BFFA4000
ENDCHAR
STARTCHAR z
ENCODING 122
SWIDTH 728 0
DWIDTH 17 0
BBX 15 16 1 0
BITMAP
3FFFFFF8
000000F0
000002C0
00000B40
00002D00
00007800
0001E000
0003C000
000B0000
002D0000
00740000
01E00000
03800000
0F000000
2C000000
7FFFFFFC
ENDCHAR
STARTCHAR braceleft
ENCODING 123
SWIDTH 386 0
DWIDTH 9 0
BBX 8 18 0 -1
BITMAP
006F
01D0
01C0
02C0
02C0
02C0
0280
0740
7D00
0700
0280
0280
02C0
02C0
02C0
01C0
00D0
006F
ENDCHAR
STARTCHAR bar
ENCODING 124
SWIDTH 259 0
DWIDTH 6 0
BBX 2 24 2 -6
BITMAP
B0
B0
B0
B0
B0
B0
B0
B0
B0
B0
B0
B0
B0
B0
B0
B0
B0
B0
B0
B0
B0
B0
B0
B0
ENDCHAR
STARTCHAR braceright
ENCODING 125
SWIDTH 386 0
DWIDTH 9 0
BBX 8 18 1 -1
BITMAP
BD00
0740
0280
02C0
02C0
02C0
01C0
00E0
003E
00A0
01C0
02C0
02C0
02C0
0280
0280
0740
BD00
ENDCHAR
STARTCHAR asciitilde
ENCODING 126
SWIDTH 634 0
DWIDTH 15 0
BBX 12 3 2 7
BITMAP
2F8001
90B918
4006E4
ENDCHAR
STARTCHAR nonbreakingspace
ENCODING 160
SWIDTH 375 0
DWIDTH 9 0
BBX 1 1 0 0
BITMAP
00
ENDCHAR
STARTCHAR exclamdown
ENCODING 161
SWIDTH 274 0
DWIDTH 7 0
BBX 3 16 2 0
BITMAP
B4
B4
00
00
60
70
70
70
70
70
70
B0
B0
B4
B4
B4
ENDCHAR
STARTCHAR cent
ENCODING 162
SWIDTH 736 0
DWIDTH 18 0
BBX 16 18 1 -1
BITMAP
0000D000
0000D000
001BFE40
02E4D1B8
0E00D005
2800D000
7400D000
B000D000
A000D000
A000D000
B000D000
7400D000
2800D000
0E00D005
02E4D178
006BFE40
0000D000
0000D000
ENDCHAR
STARTCHAR sterling
ENCODING 163
SWIDTH 792 0
DWIDTH 19 0
BBX 17 16 1 0
BITMAP
0002BFE400
001E401A00
0074000000
00A0000000
00D0000000
00D0000000
00D0000000
BFFFFFC000
00D0000000
00D0000000
00D0000000
00D0000000
01C0000000
0380000000
1FFE940540
A5016BF900
ENDCHAR
STARTCHAR currency
ENCODING 164
SWIDTH 560 0
DWIDTH 13 0
BBX 11 11 1 3
BITMAP
600018
39BE74
0F42E0
0D00A0
180070
280030
180070
0D00A0
0F42E0
39BE74
600018
ENDCHAR
STARTCHAR yen
ENCODING 165
SWIDTH 811 0
DWIDTH 19 0
BBX 17 16 1 0
BITMAP
7800000780
1D00000E00
0B40002C00
02C000B400
00E001D000
0078078000
001D0E0000
3FFF6FFF40
0002F00000
0000D00000
3FFFFFFF40
0000D00000
0000D00000
0000D00000
0000D00000
0000D00000
ENDCHAR
STARTCHAR brokenbar
ENCODING 166
SWIDTH 259 0
DWIDTH 6 0
BBX 2 21 2 -4
BITMAP
B0
B0
B0
B0
B0
B0
B0
B0
B0
00
00
00
B0
B0
B0
B0
B0
B0
B0
B0
B0
ENDCHAR
STARTCHAR section
ENCODING 167
SWIDTH 500 0
DWIDTH 12 0
BBX 10 16 1 0
BITMAP
06F900
1D0240
280000
2D0000
0B8000
2DB900
700B80
B001D0
7800E0
1F41D0
01FB40
001E00
000380
000280
240740
1BF900
ENDCHAR
STARTCHAR dieresis
ENCODING 168
SWIDTH 527 0
DWIDTH 13 0
BBX 7 2 3 13
BITMAP
F078
F078
ENDCHAR
STARTCHAR copyright
ENCODING 169
SWIDTH 770 0
DWIDTH 19 0
BBX 17 16 1 0
BITMAP
001BF90000
01E4078000
0B00007000
1C1BF81800
3478060900
60E0000700
91C0000300
91C0000340
91C0000240
91C0000300
60E0000700
3478060900
1C1BF81800
0B00007000
01E4068000
001BF90000
ENDCHAR
STARTCHAR ordfeminine
ENCODING 170
SWIDTH 497 0
DWIDTH 12 0
BBX 11 10 0 6
BITMAP
06FF90
1901B4
000028
01ABF8
2E5428
740028
3401B8
1BFE68
000000
3FFFF8
ENDCHAR
STARTCHAR guillemotleft
ENCODING 171
SWIDTH 440 0
DWIDTH 11 0
BBX 9 9 1 4
BITMAP
020240
0A0B00
2C1D00
747400
E0A000
747400
2C1D00
0A0B00
020240
ENDCHAR
STARTCHAR logicalnot
ENCODING 172
SWIDTH 634 0
DWIDTH 15 0
BBX 12 5 2 5
BITMAP
FFFFFD
00000D
00000D
00000D
00000D
ENDCHAR
STARTCHAR uni00AD
ENCODING 173
SWIDTH 540 0
DWIDTH 13 0
BBX 9 1 2 7
BITMAP
FFFFC0
ENDCHAR
STARTCHAR registered
ENCODING 174
SWIDTH 600 0
DWIDTH 14 0
BBX 12 12 1 4
BITMAP
01BE40
0A41B4
28FE5C
70C28A
90C283
90FF43
90C303
90C283
70C0CA
28001C
0A41B4
01BE40
ENDCHAR
STARTCHAR macron
ENCODING 175
SWIDTH 527 0
DWIDTH 13 0
BBX 7 1 3 14
BITMAP
FFF8
ENDCHAR
STARTCHAR degree
ENCODING 176
SWIDTH 373 0
DWIDTH 9 0
BBX 7 6 1 10
BITMAP
1B80
3470
6034
6034
3470
1B80
ENDCHAR
STARTCHAR plusminus
ENCODING 177
SWIDTH 634 0
DWIDTH 15 0
BBX 12 12 2 1
BITMAP
003400
003400
003400
003400
FFFFFD
003400
003400
003400
003400
000000
000000
FFFFFD
ENDCHAR
STARTCHAR twosuperior
ENCODING 178
SWIDTH 511 0
DWIDTH 12 0
BBX 10 10 1 6
BITMAP
6BFA00
9406C0
0000A0
0000A0
0001D0
000B40
007800
06D000
6D0000
FFFFF0
ENDCHAR
STARTCHAR threesuperior
ENCODING 179
SWIDTH 512 0
DWIDTH 12 0
BBX 10 10 1 6
BITMAP
6BFA00
9006C0
0000D0
001680
03FD00
000680
0000A0
0000A0
9006D0
6FFA00
ENDCHAR
STARTCHAR acute
ENCODING 180
SWIDTH 527 0
DWIDTH 13 0
BBX 6 3 5 13
BITMAP
0190
2E40
A400
ENDCHAR
STARTCHAR micro
ENCODING 181
SWIDTH 705 0
DWIDTH 17 0
BBX 14 16 1 -5
BITMAP
074000E0
070000D0
0B0001D0
0A0001C0
0D000280
1D000380
1C000340
2C000B40
2D002B40
3B419340
35BE4380
70000000
B0000000
A0000000
E0000000
D0000000
ENDCHAR
STARTCHAR paragraph
ENCODING 182
SWIDTH 585 0
DWIDTH 14 0
BBX 11 16 1 0
BITMAP
06FFF4
1FFC34
3FFC34
7FFC34
BFFC34
7FFC34
3FFC34
1FFC34
06FC34
001C34
001C34
001C34
001C34
001C34
001C34
001C34
ENDCHAR
STARTCHAR periodcentered
ENCODING 183
SWIDTH 185 0
DWIDTH 4 0
BBX 3 3 1 7
BITMAP
B4
B4
B4
ENDCHAR
STARTCHAR cedilla
ENCODING 184
SWIDTH 527 0
DWIDTH 13 0
BBX 6 5 3 -5
BITMAP
0600
0BD0
0070
00B0
7F90
ENDCHAR
STARTCHAR onesuperior
ENCODING 185
SWIDTH 261 0
DWIDTH 6 0
BBX 4 10 0 6
BITMAP
1F
A7
07
07
07
07
07
07
07
07
ENDCHAR
STARTCHAR ordmasculine
ENCODING 186
SWIDTH 520 0
DWIDTH 12 0
BBX 12 10 0 6
BITMAP
02BF90
1E4078
38000D
70000A
70000A
38000D
1E4078
02BF90
000000
2FFFFD
ENDCHAR
STARTCHAR guillemotright
ENCODING 187
SWIDTH 440 0
DWIDTH 11 0
BBX 9 9 1 4
BITMAP
906000
B47400
2C1D00
0A0B00
074380
0A0B00
2C1D00
B47400
906000
ENDCHAR
STARTCHAR onequarter
ENCODING 188
SWIDTH 857 0
DWIDTH 21 0
BBX 20 16 0 0
BITMAP
1B40000B00
6740001D00
0340007400
034000E000
0340028000
03400B0000
03401C0000
03407403C0
0340E00AC0
00028029C0
000B00A1C0
001C0181C0
00740601C0
00E01FFFFD
02800001C0
0B000001C0
ENDCHAR
STARTCHAR onehalf
ENCODING 189
SWIDTH 937 0
DWIDTH 22 0
BBX 21 16 0 0
BITMAP
1B40000B0000
6740001D0000
034000740000
034000E00000
034002800000
03400B000000
03401C000000
0340741BF800
0340E0A41B00
000280000340
000B00000340
001C00000A00
007400007800
00E00002D000
0280001E0000
0B0000BFFF80
ENDCHAR
STARTCHAR threequarters
ENCODING 190
SWIDTH 978 0
DWIDTH 23 0
BBX 22 16 1 0
BITMAP
2FE80000A000
901A0002C000
000700074000
001A001D0000
07F400380000
001A00A00000
000342C00000
901B07407C00
6FF81D00EC00
000038035C00
0000A00D1C00
0002C0281C00
000740A01C00
001D01FFFFD0
003800001C00
00A000001C00
ENDCHAR
STARTCHAR questiondown
ENCODING 191
SWIDTH 568 0
DWIDTH 14 0
BBX 12 16 1 0
BITMAP
0003C0
0003C0
000000
000000
0002C0
0002C0
001BC0
01F900
0B8000
2D0000
740000
740000
740000
280005
0F4068
01BF90
ENDCHAR
STARTCHAR Agrave
ENCODING 192
SWIDTH 812 0
DWIDTH 20 0
BBX 19 20 0 0
BITMAP
0009000000
0006E00000
00002C0000
0000000000
00007C0000
0000ED0000
0001C70000
0003434000
000701C000
000D00E000
002C007000
0034002800
00A0001C00
00D0000A00
02FFFFFF40
0300000280
0A000000D0
1D000000A0
2800000074
7400000028
ENDCHAR
STARTCHAR Aacute
ENCODING 193
SWIDTH 812 0
DWIDTH 20 0
BBX 19 20 0 0
BITMAP
000001A000
00001B9000
0000640000
0000000000
00007C0000
0000ED0000
0001C70000
0003434000
000701C000
000D00E000
002C007000
0034002800
00A0001C00
00D0000A00
02FFFFFF40
0300000280
0A000000D0
1D000000A0
2800000074
7400000028
ENDCHAR
STARTCHAR Acircumflex
ENCODING 194
SWIDTH 812 0
DWIDTH 20 0
BBX 19 20 0 0
BITMAP
0000790000
0007979000
0029006000
0000000000
00007C0000
0000ED0000
0001C70000
0003434000
000701C000
000D00E000
002C007000
0034002800
00A0001C00
00D0000A00
02FFFFFF40
0300000280
0A000000D0
1D000000A0
2800000074
7400000028
ENDCHAR
STARTCHAR Atilde
ENCODING 195
SWIDTH 812 0
DWIDTH 20 0
BBX 19 20 0 0
BITMAP
0007907000
000D78A000
00180B8000
0000000000
00007C0000
0000ED0000
0001C70000
0003434000
000701C000
000D00E000
002C007000
0034002800
00A0001C00
00D0000A00
02FFFFFF40
0300000280
0A000000D0
1D000000A0
2800000074
7400000028
ENDCHAR
STARTCHAR Adieresis
ENCODING 196
SWIDTH 812 0
DWIDTH 20 0
BBX 19 19 0 0
BITMAP
000742C000
000742C000
0000000000
00007C0000
0000ED0000
0001C70000
0003434000
000701C000
000D00E000
002C007000
0034002800
00A0001C00
00D0000A00
02FFFFFF40
0300000280
0A000000D0
1D000000A0
2800000074
7400000028
ENDCHAR
STARTCHAR Aring
ENCODING 197
SWIDTH 812 0
DWIDTH 20 0
BBX 19 21 0 0
BITMAP
0001BE0000
0003428000
0003428000
0001BE0000
0000000000
00007C0000
0000ED0000
0001C70000
0003434000
000701C000
000D00E000
002C007000
0034002800
00A0001C00
00D0000A00
02FFFFFF40
0300000280
0A000000D0
1D000000A0
2800000074
7400000028
ENDCHAR
STARTCHAR AE
ENCODING 198
SWIDTH 1172 0
DWIDTH 28 0
BBX 27 16 0 0
BITMAP
000007FFFFFFF0
00000D74000000
00002874000000
00007074000000
0001D074000000
00028074000000
000B0074000000
001D007FFFFFE0
00380074000000
00B00074000000
01FFFFF4000000
03400074000000
0B000074000000
1D000074000000
38000074000000
B400007FFFFFF4
ENDCHAR
STARTCHAR Ccedilla
ENCODING 199
SWIDTH 869 0
DWIDTH 21 0
BBX 19 21 1 -5
BITMAP
0006BFE900
0079401690
0380000024
0E00000000
2C00000000
3800000000
7400000000
7000000000
7000000000
7400000000
3800000000
2C00000000
0E00000000
0380000024
00B9401690
0006BFE900
0000280000
00003E4000
0000028000
0000028000
0002FE0000
ENDCHAR
STARTCHAR Egrave
ENCODING 200
SWIDTH 754 0
DWIDTH 18 0
BBX 15 20 2 0
BITMAP
02900000
01B90000
00068000
00000000
7FFFFFF0
74000000
74000000
74000000
74000000
74000000
74000000
7FFFFFE0
74000000
74000000
74000000
74000000
74000000
74000000
74000000
7FFFFFF4
ENDCHAR
STARTCHAR Eacute
ENCODING 201
SWIDTH 754 0
DWIDTH 18 0
BBX 15 20 2 0
BITMAP
00001800
0002E400
000A4000
00000000
7FFFFFF0
74000000
74000000
74000000
74000000
74000000
74000000
7FFFFFE0
74000000
74000000
74000000
74000000
74000000
74000000
74000000
7FFFFFF4
ENDCHAR
STARTCHAR Ecircumflex
ENCODING 202
SWIDTH 754 0
DWIDTH 18 0
BBX 15 20 2 0
BITMAP
000B4000
01B9B400
02400A00
00000000
7FFFFFF0
74000000
74000000
74000000
74000000
74000000
74000000
7FFFFFE0
74000000
74000000
74000000
74000000
74000000
74000000
74000000
7FFFFFF4
ENDCHAR
STARTCHAR Edieresis
ENCODING 203
SWIDTH 754 0
DWIDTH 18 0
BBX 15 19 2 0
BITMAP
00E07800
00E07800
00000000
7FFFFFF0
74000000
74000000
74000000
74000000
74000000
74000000
7FFFFFE0
74000000
74000000
74000000
74000000
74000000
74000000
74000000
7FFFFFF4
ENDCHAR
STARTCHAR Igrave
ENCODING 204
SWIDTH 287 0
DWIDTH 7 0
BBX 6 20 -1 0
BITMAP
6400
2F40
01A0
0000
01D0
01D0
01D0
01D0
01D0
01D0
01D0
01D0
01D0
01D0
01D0
01D0
01D0
01D0
01D0
01D0
ENDCHAR
STARTCHAR Iacute
ENCODING 205
SWIDTH 287 0
DWIDTH 7 0
BBX 6 20 2 0
BITMAP
0190
1F40
A400
0000
7400
7400
7400
7400
7400
7400
7400
7400
7400
7400
7400
7400
7400
7400
7400
7400
ENDCHAR
STARTCHAR Icircumflex
ENCODING 206
SWIDTH 287 0
DWIDTH 7 0
BBX 9 20 -1 0
BITMAP
02D000
2E6E00
900280
000000
01D000
01D000
01D000
01D000
01D000
01D000
01D000
01D000
01D000
01D000
01D000
01D000
01D000
01D000
01D000
01D000
ENDCHAR
STARTCHAR Idieresis
ENCODING 207
SWIDTH 287 0
DWIDTH 7 0
BBX 7 19 0 0
BITMAP
B038
B038
0000
0740
0740
0740
0740
0740
0740
0740
0740
0740
0740
0740
0740
0740
0740
0740
0740
ENDCHAR
STARTCHAR Eth
ENCODING 208
SWIDTH 910 0
DWIDTH 22 0
BBX 21 16 0 0
BITMAP
07FFFFA90000
0740005BD000
07400000B400
074000002D00
074000000E00
074000000B00
074000000740
BFFFF8000740
074000000740
074000000740
074000000B00
074000000E00
074000001D00
074000007400
0740001BD000
07FFFFE90000
ENDCHAR
STARTCHAR Ntilde
ENCODING 209
SWIDTH 936 0
DWIDTH 22 0
BBX 18 20 2 0
BITMAP
000B809000
0028B5C000
00341F4000
0000000000
78000000A0
7E000000A0
77800000A0
74E00000A0
74380000A0
741E0000A0
74078000A0
7401E000A0
74007800A0
74001E00A0
74000780A0
740001E0A0
74000074A0
7400001DA0
74000007E0
74000001E0
ENDCHAR
STARTCHAR Ograve
ENCODING 210
SWIDTH 983 0
DWIDTH 24 0
BBX 21 20 1 0
BITMAP
000240000000
0001B8000000
00000B000000
000000000000
0006BFE90000
00B94016D000
078000007800
0E0000000E00
2C0000000740
380000000380
7400000002C0
7000000002C0
7000000002C0
7400000002C0
380000000380
2C0000000740
0E0000000E00
078000007800
00B94016D000
0006FFE90000
ENDCHAR
STARTCHAR Oacute
ENCODING 211
SWIDTH 983 0
DWIDTH 24 0
BBX 21 20 1 0
BITMAP
000000680000
000006E40000
000019000000
000000000000
0006BFE90000
00B94016D000
078000007800
0E0000000E00
2C0000000740
380000000380
7400000002C0
7000000002C0
7000000002C0
7400000002C0
380000000380
2C0000000740
0E0000000E00
078000007800
00B94016D000
0006FFE90000
ENDCHAR
STARTCHAR Ocircumflex
ENCODING 212
SWIDTH 983 0
DWIDTH 24 0
BBX 21 20 1 0
BITMAP
00001A400000
0001E5E40000
000640180000
000000000000
0006BFE90000
00B94016D000
078000007800
0E0000000E00
2C0000000740
380000000380
7400000002C0
7000000002C0
7000000002C0
7400000002C0
380000000380
2C0000000740
0E0000000E00
078000007800
00B94016D000
0006FFE90000
ENDCHAR
STARTCHAR Otilde
ENCODING 213
SWIDTH 983 0
DWIDTH 24 0
BBX 21 20 1 0
BITMAP
0001F41C0000
00035E280000
000702E00000
000000000000
0006BFE90000
00B94016D000
078000007800
0E0000000E00
2C0000000740
380000000380
7400000002C0
7000000002C0
7000000002C0
7400000002C0
380000000380
2C0000000740
0E0000000E00
078000007800
00B94016D000
0006FFE90000
ENDCHAR
STARTCHAR Odieresis
ENCODING 214
SWIDTH 983 0
DWIDTH 24 0
BBX 21 19 1 0
BITMAP
0001D0B00000
0001D0B00000
000000000000
0006BFE90000
00B94016D000
078000007800
0E0000000E00
2C0000000740
380000000380
7400000002C0
7000000002C0
7000000002C0
7400000002C0
380000000380
2C0000000740
0E0000000E00
078000007800
00B94016D000
0006FFE90000
ENDCHAR
STARTCHAR multiply
ENCODING 215
SWIDTH 634 0
DWIDTH 15 0
BBX 10 10 3 3
BITMAP
800090
B002C0
2C0B00
0B2C00
02F000
02F000
0B6C00
2C0B00
B002C0
800090
ENDCHAR
STARTCHAR Oslash
ENCODING 216
SWIDTH 983 0
DWIDTH 24 0
BBX 21 20 1 -2
BITMAP
000000003800
00000000A000
0006BFE9D000
00B9401BD000
0780000E7800
0E0000280E00
2C0000700740
380000D00380
7400028002C0
70000B0002C0
70001D0002C0
7400380002C0
3800A0000380
2C01C0000740
0E0740000E00
079E00007800
00BD4016D000
0076BFE90000
01D000000000
028000000000
ENDCHAR
STARTCHAR Ugrave
ENCODING 217
SWIDTH 891 0
DWIDTH 21 0
BBX 17 20 2 0
BITMAP
0024000000
001B800000
0001A00000
0000000000
7000000280
7000000280
7000000280
7000000280
7000000280
7000000280
7000000280
7000000280
7000000280
7000000280
7000000280
7000000280
3400000340
2D00000B00
079401B800
006FFE9000
ENDCHAR
STARTCHAR Uacute
ENCODING 218
SWIDTH 891 0
DWIDTH 21 0
BBX 17 20 2 0
BITMAP
0000068000
00006E4000
0002900000
0000000000
7000000280
7000000280
7000000280
7000000280
7000000280
7000000280
7000000280
7000000280
7000000280
7000000280
7000000280
7000000280
3400000340
2D00000B00
079401B800
006FFE9000
ENDCHAR
STARTCHAR Ucircumflex
ENCODING 219
SWIDTH 891 0
DWIDTH 21 0
BBX 17 20 2 0
BITMAP
0001E00000
001E6E4000
00A4018000
0000000000
7000000280
7000000280
7000000280
7000000280
7000000280
7000000280
7000000280
7000000280
7000000280
7000000280
7000000280
7000000280
3400000340
2D00000B00
079401B800
006FFE9000
ENDCHAR
STARTCHAR Udieresis
ENCODING 220
SWIDTH 891 0
DWIDTH 21 0
BBX 17 19 2 0
BITMAP
002D0B0000
002D0B0000
0000000000
7000000280
7000000280
7000000280
7000000280
7000000280
7000000280
7000000280
7000000280
7000000280
7000000280
7000000280
7000000280
3400000340
2D00000B00
079401B800
006FFE9000
ENDCHAR
STARTCHAR Yacute
ENCODING 221
SWIDTH 763 0
DWIDTH 18 0
BBX 16 20 1 0
BITMAP
00000600
0000B900
00038000
00000000
B000000B
3800002D
0E000074
074001E0
01D00380
00B40B00
002C2D00
000E7400
0007D000
0002C000
0002C000
0002C000
0002C000
0002C000
0002C000
0002C000
ENDCHAR
STARTCHAR Thorn
ENCODING 222
SWIDTH 787 0
DWIDTH 19 0
BBX 16 16 2 0
BITMAP
74000000
74000000
74000000
7FFFFE40
740005F4
7400002C
7400001D
7400000D
7400000D
7400001D
7400002C
740001F4
7FFFFE40
74000000
74000000
74000000
ENDCHAR
STARTCHAR germandbls
ENCODING 223
SWIDTH 863 0
DWIDTH 21 0
BBX 18 16 2 0
BITMAP
006FFE4000
0B9005B400
2C00001D00
7000000A00
A000000B00
A000001E00
A00001B800
A02FFFD000
A00005BD00
A000000780
A0000002C0
A0000001D0
A0000001C0
A000000380
A0E5006E00
A01AFFA400
ENDCHAR
STARTCHAR agrave
ENCODING 224
SWIDTH 888 0
DWIDTH 21 0
BBX 18 20 1 0
BITMAP
0019000000
0007D00000
0000680000
0000000000
001BFF9000
06A4016E00
0900000280
00000000D0
00000000A0
00000000A0
00005AAFE0
006FE950A0
07E40000A0
2D000000A0
74000000A0
70000000A0
70000000A0
38000006E0
1F5005B9A0
01BFFA40A0
ENDCHAR
STARTCHAR aacute
ENCODING 225
SWIDTH 888 0
DWIDTH 21 0
BBX 18 20 1 0
BITMAP
0000019000
00001F8000
0000A40000
0000000000
001BFF9000
06A4016E00
0900000280
00000000D0
00000000A0
00000000A0
00005AAFE0
006FE950A0
07E40000A0
2D000000A0
74000000A0
70000000A0
70000000A0
38000006E0
1F5005B9A0
01BFFA40A0
ENDCHAR
STARTCHAR acircumflex
ENCODING 226
SWIDTH 888 0
DWIDTH 21 0
BBX 18 20 1 0
BITMAP
0000780000
000B9B8000
0028006000
0000000000
001BFF9000
06A4016E00
0900000280
00000000D0
00000000A0
00000000A0
00005AAFE0
006FE950A0
07E40000A0
2D000000A0
74000000A0
70000000A0
70000000A0
38000006E0
1F5005B9A0
01BFFA40A0
ENDCHAR
STARTCHAR atilde
ENCODING 227
SWIDTH 888 0
DWIDTH 21 0
BBX 18 20 1 0
BITMAP
000B806000
001C749000
00180B8000
0000000000
001BFF9000
06A4016E00
0900000280
00000000D0
00000000A0
00000000A0
00005AAFE0
006FE950A0
07E40000A0
2D000000A0
74000000A0
70000000A0
70000000A0
38000006E0
1F5005B9A0
01BFFA40A0
ENDCHAR
STARTCHAR adieresis
ENCODING 228
SWIDTH 888 0
DWIDTH 21 0
BBX 18 19 1 0
BITMAP
000B038000
000B038000
0000000000
001BFF9000
06A4016E00
0900000280
00000000D0
00000000A0
00000000A0
00005AAFE0
006FE950A0
07E40000A0
2D000000A0
74000000A0
70000000A0
70000000A0
38000006E0
1F5005B9A0
01BFFA40A0
ENDCHAR
STARTCHAR aring
ENCODING 229
SWIDTH 888 0
DWIDTH 21 0
BBX 18 21 1 0
BITMAP
0001FE0000
0007424000
0007024000
0002FE0000
0000000000
001BFF9000
06A4016E00
0900000280
00000000D0
00000000A0
00000000A0
00005AAFE0
006FE950A0
07E40000A0
2D000000A0
74000000A0
70000000A0
70000000A0
38000006E0
1F5005B9A0
01BFFA40A0
ENDCHAR
STARTCHAR ae
ENCODING 230
SWIDTH 1551 0
DWIDTH 37 0
BBX 35 16 1 0
BITMAP
001BFE900006FF9000
06A4016E00B5006E00
0900000287400002C0
00000000DD000000A0
00000000B800000074
00000000B000000028
00005AAFF000000028
006FE950BFFFFFFFFC
07E40000A000000000
2D000000B000000000
740000007400000000
700000003800000000
700000007E00000000
380000078280000050
1F5005B80079401B80
01BFFA400006BFE400
ENDCHAR
STARTCHAR ccedilla
ENCODING 231
SWIDTH 869 0
DWIDTH 21 0
BBX 19 21 1 -5
BITMAP
0006BFE900
0079401690
0380000024
0E00000000
2C00000000
3800000000
7400000000
7000000000
7000000000
7400000000
3800000000
2C00000000
0E00000000
0380000024
00B9401690
0006BFE900
0000280000
00003E4000
0000028000
0000028000
0002FE0000
ENDCHAR
STARTCHAR egrave
ENCODING 232
SWIDTH 910 0
DWIDTH 22 0
BBX 20 20 1 0
BITMAP
000A000000
0006E40000
0000190000
0000000000
0006FFA400
00B9006E40
03800002D0
0E000000B0
2C00000038
340000001C
740000001C
7FFFFFFFFD
7400000000
7400000000
3800000000
2D00000000
0F00000000
03D0000060
00BD401690
0006BFE400
ENDCHAR
STARTCHAR eacute
ENCODING 233
SWIDTH 910 0
DWIDTH 22 0
BBX 20 20 1 0
BITMAP
000000A000
00001B9000
0000640000
0000000000
0006FFA400
00B9006E40
03800002D0
0E000000B0
2C00000038
340000001C
740000001C
7FFFFFFFFD
7400000000
7400000000
3800000000
2D00000000
0F00000000
03D0000060
00BD401690
0006BFE400
ENDCHAR
STARTCHAR ecircumflex
ENCODING 234
SWIDTH 910 0
DWIDTH 22 0
BBX 20 20 1 0
BITMAP
0000690000
0006979000
0019006400
0000000000
0006FFA400
00B9006E40
03800002D0
0E000000B0
2C00000038
340000001C
740000001C
7FFFFFFFFD
7400000000
7400000000
3800000000
2D00000000
0F00000000
03D0000060
00BD401690
0006BFE400
ENDCHAR
STARTCHAR edieresis
ENCODING 235
SWIDTH 910 0
DWIDTH 22 0
BBX 20 19 1 0
BITMAP
000742D000
000742D000
0000000000
0006FFA400
00B9006E40
03800002D0
0E000000B0
2C00000038
340000001C
740000001C
7FFFFFFFFD
7400000000
7400000000
3800000000
2D00000000
0F00000000
03D0000060
00BD401690
0006BFE400
ENDCHAR
STARTCHAR igrave
ENCODING 236
SWIDTH 287 0
DWIDTH 7 0
BBX 6 20 -1 0
BITMAP
6400
2F40
01A0
0000
01D0
01D0
01D0
01D0
01D0
01D0
01D0
01D0
01D0
01D0
01D0
01D0
01D0
01D0
01D0
01D0
ENDCHAR
STARTCHAR iacute
ENCODING 237
SWIDTH 287 0
DWIDTH 7 0
BBX 6 20 2 0
BITMAP
0190
1F40
A400
0000
7400
7400
7400
7400
7400
7400
7400
7400
7400
7400
7400
7400
7400
7400
7400
7400
ENDCHAR
STARTCHAR icircumflex
ENCODING 238
SWIDTH 287 0
DWIDTH 7 0
BBX 9 20 -1 0
BITMAP
02E000
2E6E00
A00280
000000
01D000
01D000
01D000
01D000
01D000
01D000
01D000
01D000
01D000
01D000
01D000
01D000
01D000
01D000
01D000
01D000
ENDCHAR
STARTCHAR idieresis
ENCODING 239
SWIDTH 287 0
DWIDTH 7 0
BBX 7 19 0 0
BITMAP
B038
B038
0000
0740
0740
0740
0740
0740
0740
0740
0740
0740
0740
0740
0740
0740
0740
0740
0740
ENDCHAR
STARTCHAR eth
ENCODING 240
SWIDTH 910 0
DWIDTH 22 0
BBX 21 16 0 0
BITMAP
07FFFFA90000
0740005BD000
07400000B400
074000002D00
074000000E00
074000000B00
074000000740
BFFFF8000740
074000000740
074000000740
074000000B00
074000000E00
074000001D00
074000007400
0740001BD000
07FFFFE90000
ENDCHAR
STARTCHAR ntilde
ENCODING 241
SWIDTH 933 0
DWIDTH 22 0
BBX 18 20 2 0
BITMAP
001F40C000
0024A18000
00301F4000
0000000000
7401BFE400
746E401B40
76D00002C0
7E000000D0
74000000A0
74000000A0
74000000A0
74000000A0
74000000A0
74000000A0
74000000A0
74000000A0
74000000A0
74000000A0
74000000A0
74000000A0
ENDCHAR
STARTCHAR ograve
ENCODING 242
SWIDTH 983 0
DWIDTH 24 0
BBX 21 20 1 0
BITMAP
000240000000
0001B8000000
00000B000000
000000000000
0006BFE90000
00B94016D000
078000007800
0E0000000E00
2C0000000740
380000000380
7400000002C0
7000000002C0
7000000002C0
7400000002C0
380000000380
2C0000000740
0E0000000E00
078000007800
00B94016D000
0006FFE90000
ENDCHAR
STARTCHAR oacute
ENCODING 243
SWIDTH 983 0
DWIDTH 24 0
BBX 21 20 1 0
BITMAP
000000680000
000006E40000
000019000000
000000000000
0006BFE90000
00B94016D000
078000007800
0E0000000E00
2C0000000740
380000000380
7400000002C0
7000000002C0
7000000002C0
7400000002C0
380000000380
2C0000000740
0E0000000E00
078000007800
00B94016D000
0006FFE90000
ENDCHAR
STARTCHAR ocircumflex
ENCODING 244
SWIDTH 983 0
DWIDTH 24 0
BBX 21 20 1 0
BITMAP
00001A400000
0001E5E40000
000640180000
000000000000
0006BFE90000
00B94016D000
078000007800
0E0000000E00
2C0000000740
380000000380
7400000002C0
7000000002C0
7000000002C0
7400000002C0
380000000380
2C0000000740
0E0000000E00
078000007800
00B94016D000
0006FFE90000
ENDCHAR
STARTCHAR otilde
ENCODING 245
SWIDTH 983 0
DWIDTH 24 0
BBX 21 20 1 0
BITMAP
0001F41C0000
00035E280000
000702E00000
000000000000
0006BFE90000
00B94016D000
078000007800
0E0000000E00
2C0000000740
380000000380
7400000002C0
7000000002C0
7000000002C0
7400000002C0
380000000380
2C0000000740
0E0000000E00
078000007800
00B94016D000
0006FFE90000
ENDCHAR
STARTCHAR odieresis
ENCODING 246
SWIDTH 983 0
DWIDTH 24 0
BBX 21 19 1 0
BITMAP
0001D0B00000
0001D0B00000
000000000000
0006BFE90000
00B94016D000
078000007800
0E0000000E00
2C0000000740
380000000380
7400000002C0
7000000002C0
7000000002C0
7400000002C0
380000000380
2C0000000740
0E0000000E00
078000007800
00B94016D000
0006FFE90000
ENDCHAR
STARTCHAR divide
ENCODING 247
SWIDTH 634 0
DWIDTH 15 0
BBX 12 9 2 3
BITMAP
003400
003400
000000
000000
FFFFFD
000000
000000
003400
003400
ENDCHAR
STARTCHAR oslash
ENCODING 248
SWIDTH 983 0
DWIDTH 24 0
BBX 21 20 1 -2
BITMAP
000000003800
00000000A000
0006BFE9D000
00B9401BD000
0780000E7800
0E0000280E00
2C0000700740
380000D00380
7400028002C0
70000B0002C0
70001D0002C0
7400380002C0
3800A0000380
2C01C0000740
0E0740000E00
079E00007800
00BD4016D000
0076BFE90000
01D000000000
028000000000
ENDCHAR
STARTCHAR ugrave
ENCODING 249
SWIDTH 931 0
DWIDTH 22 0
BBX 18 20 2 0
BITMAP
0029000000
001B900000
0000640000
0000000000
70000000E0
70000000E0
70000000E0
70000000E0
70000000E0
70000000E0
70000000E0
70000000E0
70000000E0
70000000E0
70000000E0
74000000E0
34000007E0
2C000069E0
0B401B90E0
01BFE500E0
ENDCHAR
STARTCHAR uacute
ENCODING 250
SWIDTH 931 0
DWIDTH 22 0
BBX 18 20 2 0
BITMAP
0000018000
00002E4000
0000D00000
0000000000
70000000E0
70000000E0
70000000E0
70000000E0
70000000E0
70000000E0
70000000E0
70000000E0
70000000E0
70000000E0
70000000E0
74000000E0
34000007E0
2C000069E0
0B401B90E0
01BFE500E0
ENDCHAR
STARTCHAR ucircumflex
ENCODING 251
SWIDTH 931 0
DWIDTH 22 0
BBX 18 20 2 0
BITMAP
0001A40000
001B5B4000
0024019000
0000000000
70000000E0
70000000E0
70000000E0
70000000E0
70000000E0
70000000E0
70000000E0
70000000E0
70000000E0
70000000E0
70000000E0
74000000E0
34000007E0
2C000069E0
0B401B90E0
01BFE500E0
ENDCHAR
STARTCHAR udieresis
ENCODING 252
SWIDTH 931 0
DWIDTH 22 0
BBX 18 19 2 0
BITMAP
000E074000
000E074000
0000000000
70000000E0
70000000E0
70000000E0
70000000E0
70000000E0
70000000E0
70000000E0
70000000E0
70000000E0
70000000E0
70000000E0
74000000E0
34000007E0
2C000069E0
0B401B90E0
01BFE500E0
ENDCHAR
STARTCHAR yacute
ENCODING 253
SWIDTH 911 0
DWIDTH 22 0
BBX 17 20 2 0
BITMAP
0000064000
00006E4000
0002900000
0000000000
E0000001C0
E0000001C0
E0000001C0
E0000001C0
A0000001C0
A0000002C0
70000007C0
34000019C0
1D000061C0
07900781C0
00AFE801C0
00000002C0
0000000740
9000002E00
6E4006F400
01BFFA4000
ENDCHAR
STARTCHAR thorn
ENCODING 254
SWIDTH 787 0
DWIDTH 19 0
BBX 16 16 2 0
BITMAP
74000000
74000000
74000000
7FFFFE40
740005F4
7400002C
7400001D
7400000D
7400000D
7400001D
7400002C
740001F4
7FFFFE40
74000000
74000000
74000000
ENDCHAR
STARTCHAR ydieresis
ENCODING 255
SWIDTH 911 0
DWIDTH 22 0
BBX 17 19 2 0
BITMAP
002C0F0000
002C0F0000
0000000000
E0000001C0
E0000001C0
E0000001C0
E0000001C0
A0000001C0
A0000002C0
70000007C0
34000019C0
1D000061C0
07900781C0
00AFE801C0
00000002C0
0000000740
9000002E00
6E4006F400
01BFFA4000
ENDCHAR
STARTCHAR Amacron
ENCODING 256
SWIDTH 812 0
DWIDTH 20 0
BBX 19 19 0 0
BITMAP
0007FFC000
0000000000
0000000000
00007C0000
0000ED0000
0001C70000
0003434000
000701C000
000D00E000
002C007000
0034002800
00A0001C00
00D0000A00
02FFFFFF40
0300000280
0A000000D0
1D000000A0
2800000074
7400000028
ENDCHAR
STARTCHAR amacron
ENCODING 257
SWIDTH 888 0
DWIDTH 21 0
BBX 18 19 1 0
BITMAP
000BFF8000
0000000000
0000000000
001BFF9000
06A4016E00
0900000280
00000000D0
00000000A0
00000000A0
00005AAFE0
006FE950A0
07E40000A0
2D000000A0
74000000A0
70000000A0
70000000A0
38000006E0
1F5005B9A0
01BFFA40A0
ENDCHAR
STARTCHAR Abreve
ENCODING 258
SWIDTH 812 0
DWIDTH 20 0
BBX 19 20 0 0
BITMAP
000D00A000
000B42C000
0001FE0000
0000000000
00007C0000
0000ED0000
0001C70000
0003434000
000701C000
000D00E000
002C007000
0034002800
00A0001C00
00D0000A00
02FFFFFF40
0300000280
0A000000D0
1D000000A0
2800000074
7400000028
ENDCHAR
STARTCHAR abreve
ENCODING 259
SWIDTH 888 0
DWIDTH 21 0
BBX 18 20 1 0
BITMAP
001C00D000
000A468000
0002FE0000
0000000000
001BFF9000
06A4016E00
0900000280
00000000D0
00000000A0
00000000A0
00005AAFE0
006FE950A0
07E40000A0
2D000000A0
74000000A0
70000000A0
70000000A0
38000006E0
1F5005B9A0
01BFFA40A0
ENDCHAR
STARTCHAR Aogonek
ENCODING 260
SWIDTH 812 0
DWIDTH 20 0
BBX 21 20 0 -4
BITMAP
00007C000000
0000ED000000
0001DB000000
000383400000
000702C00000
000E00E00000
002C00700000
003400380000
00B0001C0000
00D0000A0000
02FFFFFF4000
030000028000
0A000000D000
1D000000A000
280000007400
740000002800
000000006400
00000001C000
00000001C000
00000000BF80
ENDCHAR
STARTCHAR aogonek
ENCODING 261
SWIDTH 888 0
DWIDTH 21 0
BBX 20 20 1 -4
BITMAP
001BFF9000
06A4016E00
0900000280
00000000D0
00000000A0
00000000A0
00005AAFE0
006FE950A0
07E40000A0
2D000000A0
74000000A0
70000000A0
70000000E0
3800000BE0
1F5006B9A0
01BFFA40A0
0000000280
0000000700
0000000A00
00000002FD
ENDCHAR
STARTCHAR Cacute
ENCODING 262
SWIDTH 869 0
DWIDTH 21 0
BBX 19 20 1 0
BITMAP
0000006800
000006E400
0000290000
0000000000
0006BFE900
0079401690
0380000024
0E00000000
2C00000000
3800000000
7400000000
7000000000
7000000000
7400000000
3800000000
2C00000000
0E00000000
0380000024
00B9401690
0006BFE900
ENDCHAR
STARTCHAR cacute
ENCODING 263
SWIDTH 869 0
DWIDTH 21 0
BBX 19 20 1 0
BITMAP
0000006800
000006E400
0000290000
0000000000
0006BFE900
0079401690
0380000024
0E00000000
2C00000000
3800000000
7400000000
7000000000
7000000000
7400000000
3800000000
2C00000000
0E00000000
0380000024
00B9401690
0006BFE900
ENDCHAR
STARTCHAR Ccircumflex
ENCODING 264
SWIDTH 869 0
DWIDTH 21 0
BBX 19 20 1 0
BITMAP
00001E0000
0001E6E400
000A001800
0000000000
0006BFE900
0079401690
0380000024
0E00000000
2C00000000
3800000000
7400000000
7000000000
7000000000
7400000000
3800000000
2C00000000
0E00000000
0380000024
00B9401690
0006BFE900
ENDCHAR
STARTCHAR ccircumflex
ENCODING 265
SWIDTH 869 0
DWIDTH 21 0
BBX 19 20 1 0
BITMAP
00001E0000
0001E6E400
000A401800
0000000000
0006BFE900
0079401690
0380000024
0E00000000
2C00000000
3800000000
7400000000
7000000000
7000000000
7400000000
3800000000
2C00000000
0E00000000
0380000024
00B9401690
0006BFE900
ENDCHAR
STARTCHAR Cdotaccent
ENCODING 266
SWIDTH 869 0
DWIDTH 21 0
BBX 19 19 1 0
BITMAP
00001E0000
00001E0000
0000000000
0006BFE900
0079401690
0380000024
0E00000000
2C00000000
3800000000
7400000000
7000000000
7000000000
7400000000
3800000000
2C00000000
0E00000000
0380000024
00B9401690
0006BFE900
ENDCHAR
STARTCHAR cdotaccent
ENCODING 267
SWIDTH 869 0
DWIDTH 21 0
BBX 19 19 1 0
BITMAP
00001E0000
00001E0000
0000000000
0006BFE900
0079401690
0380000024
0E00000000
2C00000000
3800000000
7400000000
7000000000
7000000000
7400000000
3800000000
2C00000000
0E00000000
0380000024
00B9401690
0006BFE900
ENDCHAR
STARTCHAR Ccaron
ENCODING 268
SWIDTH 869 0
DWIDTH 21 0
BBX 19 20 1 0
BITMAP
000A001800
0001E6E400
00001E0000
0000000000
0006BFE900
0079401690
0380000024
0E00000000
2C00000000
3800000000
7400000000
7000000000
7000000000
7400000000
3800000000
2C00000000
0E00000000
0380000024
00B9401690
0006BFE900
ENDCHAR
STARTCHAR ccaron
ENCODING 269
SWIDTH 869 0
DWIDTH 21 0
BBX 19 20 1 0
BITMAP
000A001800
0001E6E400
00001E0000
0000000000
0006BFE900
0079401690
0380000024
0E00000000
2C00000000
3800000000
7400000000
7000000000
7000000000
7400000000
3800000000
2C00000000
0E00000000
0380000024
00B9401690
0006BFE900
ENDCHAR
STARTCHAR Dcaron
ENCODING 270
SWIDTH 910 0
DWIDTH 22 0
BBX 19 20 2 0
BITMAP
0240190000
01B5B40000
001B400000
0000000000
7FFFFE9000
7400016D00
7400000740
74000001D0
74000000E0
74000000B0
7400000070
7400000074
7400000074
7400000074
74000000B0
74000000E0
74000001D0
7400000740
7400016D00
7FFFFE9000
ENDCHAR
STARTCHAR dcaron
ENCODING 271
SWIDTH 910 0
DWIDTH 22 0
BBX 19 20 2 0
BITMAP
02401A0000
01B5B40000
001B400000
0000000000
7FFFFE9000
7400016D00
7400000740
74000001D0
74000000E0
74000000B0
7400000070
7400000074
7400000074
7400000074
74000000B0
74000000E0
74000001D0
7400000740
7400016D00
7FFFFE9000
ENDCHAR
STARTCHAR Dcroat
ENCODING 272
SWIDTH 910 0
DWIDTH 22 0
BBX 21 16 0 0
BITMAP
07FFFFA90000
0740005BD000
07400000B400
074000002D00
074000000E00
074000000B00
074000000740
BFFFF8000740
074000000740
074000000740
074000000B00
074000000E00
074000001D00
074000007400
0740001BD000
07FFFFE90000
ENDCHAR
STARTCHAR dcroat
ENCODING 273
SWIDTH 910 0
DWIDTH 22 0
BBX 21 16 0 0
BITMAP
07FFFFA90000
0740005BD000
07400000B400
074000002D00
074000000E00
074000000B00
074000000740
BFFFF8000740
074000000740
074000000740
074000000B00
074000000E00
074000001D00
074000007400
0740001BD000
07FFFFE90000
ENDCHAR
STARTCHAR Emacron
ENCODING 274
SWIDTH 754 0
DWIDTH 18 0
BBX 15 19 2 0
BITMAP
00FFF800
00000000
00000000
7FFFFFF0
74000000
74000000
74000000
74000000
74000000
74000000
7FFFFFE0
74000000
74000000
74000000
74000000
74000000
74000000
74000000
7FFFFFF4
ENDCHAR
STARTCHAR emacron
ENCODING 275
SWIDTH 910 0
DWIDTH 22 0
BBX 20 19 1 0
BITMAP
0007FFD000
0000000000
0000000000
0006FFA400
00B9006E40
03800002D0
0E000000B0
2C00000038
340000001C
740000001C
7FFFFFFFFD
7400000000
7400000000
3800000000
2D00000000
0F00000000
03D0000060
00BD401690
0006BFE400
ENDCHAR
STARTCHAR Ebreve
ENCODING 276
SWIDTH 754 0
DWIDTH 18 0
BBX 15 20 2 0
BITMAP
02801C00
00E07800
002FD000
00000000
7FFFFFF0
74000000
74000000
74000000
74000000
74000000
74000000
7FFFFFE0
74000000
74000000
74000000
74000000
74000000
74000000
74000000
7FFFFFF4
ENDCHAR
STARTCHAR ebreve
ENCODING 277
SWIDTH 910 0
DWIDTH 22 0
BBX 20 20 1 0
BITMAP
000D00A000
000741D000
0001BE4000
0000000000
0006FFA400
00B9006E40
03800002D0
0E000000B0
2C00000038
340000001C
740000001C
7FFFFFFFFD
7400000000
7400000000
3800000000
2D00000000
0F00000000
03D0000060
00BD401690
0006BFE400
ENDCHAR
STARTCHAR Edotaccent
ENCODING 278
SWIDTH 754 0
DWIDTH 18 0
BBX 15 19 2 0
BITMAP
000B4000
000B4000
00000000
7FFFFFF0
74000000
74000000
74000000
74000000
74000000
74000000
7FFFFFE0
74000000
74000000
74000000
74000000
74000000
74000000
74000000
7FFFFFF4
ENDCHAR
STARTCHAR edotaccent
ENCODING 279
SWIDTH 910 0
DWIDTH 22 0
BBX 20 19 1 0
BITMAP
00003C0000
00003C0000
0000000000
0006FFA400
00B9006E40
03800002D0
0E000000B0
2C00000038
340000001C
740000001C
7FFFFFFFFD
7400000000
7400000000
3800000000
2D00000000
0F00000000
03D0000060
00BD401690
0006BFE400
ENDCHAR
STARTCHAR Eogonek
ENCODING 280
SWIDTH 754 0
DWIDTH 18 0
BBX 15 20 2 -4
BITMAP
7FFFFFF0
74000000
74000000
74000000
74000000
74000000
74000000
7FFFFFE0
74000000
74000000
74000000
74000000
74000000
74000000
74000000
7FFFFFF4
00000A40
00002800
00002800
00001BF4
ENDCHAR
STARTCHAR eogonek
ENCODING 281
SWIDTH 910 0
DWIDTH 22 0
BBX 20 20 1 -4
BITMAP
0006FFA400
00B9006E40
03800002D0
0E000000B0
2C00000038
340000001C
740000001C
7FFFFFFFFD
7400000000
7400000000
3800000000
2D00000000
0F00000000
03D0000060
00BD4016D0
0006BFEB00
0000000900
0000000D00
0000000E00
00000007FC
ENDCHAR
STARTCHAR Ecaron
ENCODING 282
SWIDTH 754 0
DWIDTH 18 0
BBX 15 20 2 0
BITMAP
02400A00
01B9B400
000B4000
00000000
7FFFFFF0
74000000
74000000
74000000
74000000
74000000
74000000
7FFFFFE0
74000000
74000000
74000000
74000000
74000000
74000000
74000000
7FFFFFF4
ENDCHAR
STARTCHAR ecaron
ENCODING 283
SWIDTH 910 0
DWIDTH 22 0
BBX 20 20 1 0
BITMAP
0019006400
0006979000
0000690000
0000000000
0006FFA400
00B9006E40
03800002D0
0E000000B0
2C00000038
340000001C
740000001C
7FFFFFFFFD
7400000000
7400000000
3800000000
2D00000000
0F00000000
03D0000060
00BD401690
0006BFE400
ENDCHAR
STARTCHAR Gcircumflex
ENCODING 284
SWIDTH 910 0
DWIDTH 22 0
BBX 19 20 1 0
BITMAP
00001A4000
0001E5E400
0006401900
0000000000
0006BFE900
00794016D0
0390000014
0E00000000
2C00000000
3800000000
7400000000
7000000000
700003FFFC
740000002C
380000002C
2C0000002C
0E0000002C
03D000002C
00B94005B8
0006BFFA50
ENDCHAR
STARTCHAR gcircumflex
ENCODING 285
SWIDTH 910 0
DWIDTH 22 0
BBX 19 20 1 0
BITMAP
00001A4000
0001E5E400
0006401900
0000000000
0006BFE900
00794016D0
0390000014
0E00000000
2C00000000
3800000000
7400000000
7000000000
700003FFFC
740000002C
380000002C
2C0000002C
0E0000002C
03D000002C
00B94005B8
0006BFFA50
ENDCHAR
STARTCHAR Gbreve
ENCODING 286
SWIDTH 910 0
DWIDTH 22 0
BBX 19 20 1 0
BITMAP
0003402800
0001D0B400
00006F9000
0000000000
0006BFE900
00794016D0
0390000014
0E00000000
2C00000000
3800000000
7400000000
7000000000
700003FFFC
740000002C
380000002C
2C0000002C
0E0000002C
03D000002C
00B94005B8
0006BFFA50
ENDCHAR
STARTCHAR gbreve
ENCODING 287
SWIDTH 910 0
DWIDTH 22 0
BBX 19 20 1 0
BITMAP
0003402800
0001D0B400
00006F9000
0000000000
0006BFE900
00794016D0
0390000014
0E00000000
2C00000000
3800000000
7400000000
7000000000
700003FFFC
740000002C
380000002C
2C0000002C
0E0000002C
03D000002C
00B94005B8
0006BFFA50
ENDCHAR
STARTCHAR Gdotaccent
ENCODING 288
SWIDTH 910 0
DWIDTH 22 0
BBX 19 19 1 0
BITMAP
00000E0000
00000E0000
0000000000
0006BFE900
00794016D0
0390000014
0E00000000
2C00000000
3800000000
7400000000
7000000000
700003FFFC
740000002C
380000002C
2C0000002C
0E0000002C
03D000002C
00B94005B8
0006BFFA50
ENDCHAR
STARTCHAR gdotaccent
ENCODING 289
SWIDTH 910 0
DWIDTH 22 0
BBX 19 19 1 0
BITMAP
00000E0000
00000E0000
0000000000
0006BFE900
00794016D0
0390000014
0E00000000
2C00000000
3800000000
7400000000
7000000000
700003FFFC
740000002C
380000002C
2C0000002C
0E0000002C
03D000002C
00B94005B8
0006BFFA50
ENDCHAR
STARTCHAR Gcommaaccent
ENCODING 290
SWIDTH 910 0
DWIDTH 22 0
BBX 19 21 1 -5
BITMAP
0006BFE900
00794016D0
0390000014
0E00000000
2C00000000
3800000000
7400000000
7000000000
700003FFFC
740000002C
380000002C
2C0000002C
0E0000002C
03D000002C
00B94005B8
0006BFFA50
0000000000
0000000000
00000B0000
00000A0000
00000D0000
ENDCHAR
STARTCHAR gcommaaccent
ENCODING 291
SWIDTH 910 0
DWIDTH 22 0
BBX 19 21 1 -5
BITMAP
0006BFE900
00794016D0
0390000014
0E00000000
2C00000000
3800000000
7400000000
7000000000
700003FFFC
740000002C
380000002C
2C0000002C
0E0000002C
03D000002C
00B94005B8
0006BFFA50
0000000000
0000000000
00000B0000
00000A0000
00000D0000
ENDCHAR
STARTCHAR Hcircumflex
ENCODING 292
SWIDTH 949 0
DWIDTH 23 0
BBX 18 20 2 0
BITMAP
0000B40000
000B9B8000
002400A000
0000000000
7400000070
7400000070
7400000070
7400000070
7400000070
7400000070
7400000070
7FFFFFFFF0
7400000070
7400000070
7400000070
7400000070
7400000070
7400000070
7400000070
7400000070
ENDCHAR
STARTCHAR hcircumflex
ENCODING 293
SWIDTH 949 0
DWIDTH 23 0
BBX 18 20 2 0
BITMAP
0000B40000
000B9B8000
002400A000
0000000000
7400000070
7400000070
7400000070
7400000070
7400000070
7400000070
7400000070
7FFFFFFFF0
7400000070
7400000070
7400000070
7400000070
7400000070
7400000070
7400000070
7400000070
ENDCHAR
STARTCHAR Hbar
ENCODING 294
SWIDTH 949 0
DWIDTH 23 0
BBX 22 16 0 0
BITMAP
074000000700
074000000700
074000000700
7FFFFFFFFFF0
074000000700
074000000700
074000000700
07FFFFFFFF00
074000000700
074000000700
074000000700
074000000700
074000000700
074000000700
074000000700
074000000700
ENDCHAR
STARTCHAR hbar
ENCODING 295
SWIDTH 949 0
DWIDTH 23 0
BBX 22 16 0 0
BITMAP
074000000700
074000000700
074000000700
7FFFFFFFFFF0
074000000700
074000000700
074000000700
07FFFFFFFF00
074000000700
074000000700
074000000700
074000000700
074000000700
074000000700
074000000700
074000000700
ENDCHAR
STARTCHAR Itilde
ENCODING 296
SWIDTH 287 0
DWIDTH 7 0
BBX 9 20 -1 0
BITMAP
2E0280
61D340
906E00
000000
01D000
01D000
01D000
01D000
01D000
01D000
01D000
01D000
01D000
01D000
01D000
01D000
01D000
01D000
01D000
01D000
ENDCHAR
STARTCHAR itilde
ENCODING 297
SWIDTH 287 0
DWIDTH 7 0
BBX 9 20 -1 0
BITMAP
2E0280
71D340
A02E00
000000
01D000
01D000
01D000
01D000
01D000
01D000
01D000
01D000
01D000
01D000
01D000
01D000
01D000
01D000
01D000
01D000
ENDCHAR
STARTCHAR Imacron
ENCODING 298
SWIDTH 287 0
DWIDTH 7 0
BBX 7 19 0 0
BITMAP
BFF8
0000
0000
0740
0740
0740
0740
0740
0740
0740
0740
0740
0740
0740
0740
0740
0740
0740
0740
ENDCHAR
STARTCHAR imacron
ENCODING 299
SWIDTH 287 0
DWIDTH 7 0
BBX 7 19 0 0
BITMAP
BFF8
0000
0000
0740
0740
0740
0740
0740
0740
0740
0740
0740
0740
0740
0740
0740
0740
0740
0740
ENDCHAR
STARTCHAR Ibreve
ENCODING 300
SWIDTH 287 0
DWIDTH 7 0
BBX 9 20 -1 0
BITMAP
700340
391A00
0BF800
000000
01D000
01D000
01D000
01D000
01D000
01D000
01D000
01D000
01D000
01D000
01D000
01D000
01D000
01D000
01D000
01D000
ENDCHAR
STARTCHAR ibreve
ENCODING 301
SWIDTH 287 0
DWIDTH 7 0
BBX 9 20 -1 0
BITMAP
700340
291A00
0BF800
000000
01D000
01D000
01D000
01D000
01D000
01D000
01D000
01D000
01D000
01D000
01D000
01D000
01D000
01D000
01D000
01D000
ENDCHAR
STARTCHAR Iogonek
ENCODING 302
SWIDTH 287 0
DWIDTH 7 0
BBX 6 20 0 -4
BITMAP
0740
0740
0740
0740
0740
0740
0740
0740
0740
0740
0740
0740
0740
0740
0740
0740
1900
7000
7400
2FE0
ENDCHAR
STARTCHAR iogonek
ENCODING 303
SWIDTH 287 0
DWIDTH 7 0
BBX 6 20 0 -4
BITMAP
0740
0740
0740
0740
0740
0740
0740
0740
0740
0740
0740
0740
0740
0740
0740
0740
1900
7000
7400
2FE0
ENDCHAR
STARTCHAR Idotaccent
ENCODING 304
SWIDTH 287 0
DWIDTH 7 0
BBX 3 19 2 0
BITMAP
74
74
00
74
74
74
74
74
74
74
74
74
74
74
74
74
74
74
74
ENDCHAR
STARTCHAR dotlessi
ENCODING 305
SWIDTH 287 0
DWIDTH 7 0
BBX 3 16 2 0
BITMAP
74
74
74
74
74
74
74
74
74
74
74
74
74
74
74
74
ENDCHAR
STARTCHAR IJ
ENCODING 306
SWIDTH 877 0
DWIDTH 21 0
BBX 17 16 2 0
BITMAP
7400000340
7400000340
7400000340
7400000340
7400000340
7400000340
7400000340
7400000340
7400000340
7400000340
7400000340
7400000340
7400000700
7400000E00
7425007800
741AFF9000
ENDCHAR
STARTCHAR ij
ENCODING 307
SWIDTH 877 0
DWIDTH 21 0
BBX 17 16 2 0
BITMAP
7400000340
7400000340
7400000340
7400000340
7400000340
7400000340
7400000340
7400000340
7400000340
7400000340
7400000340
7400000340
7400000700
7400000E00
7425007800
741AFF9000
ENDCHAR
STARTCHAR Jcircumflex
ENCODING 308
SWIDTH 590 0
DWIDTH 14 0
BBX 15 20 0 0
BITMAP
00001A40
0001E5E4
00064018
00000000
00000E00
00000E00
00000E00
00000E00
00000E00
00000E00
00000E00
00000E00
00000E00
00000E00
00000E00
00000D00
00001D00
00002800
9401E000
5BFE4000
ENDCHAR
STARTCHAR jcircumflex
ENCODING 309
SWIDTH 590 0
DWIDTH 14 0
BBX 15 20 0 0
BITMAP
00001A40
0001E5E4
00064018
00000000
00000E00
00000E00
00000E00
00000E00
00000E00
00000E00
00000E00
00000E00
00000E00
00000E00
00000E00
00000D00
00001D00
00002800
9401E000
5BFE4000
ENDCHAR
STARTCHAR Kcommaaccent
ENCODING 310
SWIDTH 806 0
DWIDTH 19 0
BBX 17 21 2 -5
BITMAP
7400002D00
740001E000
74000B4000
7400780000
7406D00000
742E000000
75F4000000
7B80000000
76E0000000
747D000000
740B800000
7401F40000
74002E0000
740007D000
740000B800
7400001F40
0000000000
0000000000
0003800000
0007400000
0007000000
ENDCHAR
STARTCHAR kcommaaccent
ENCODING 311
SWIDTH 867 0
DWIDTH 21 0
BBX 18 21 2 -5
BITMAP
7400000740
7400000B00
7400000E00
7400002C00
740000B000
7400078000
7405B90000
7FFFD00000
7401AE4000
740006E000
7400007800
7400001E00
7400000740
7400000280
74000001C0
74000001D0
0000000000
0000000000
0001D00000
0001C00000
0002800000
ENDCHAR
STARTCHAR kgreenlandic
ENCODING 312
SWIDTH 867 0
DWIDTH 21 0
BBX 18 16 2 0
BITMAP
7400000740
7400000B00
7400000E00
7400002C00
740000B000
7400078000
7405B90000
7FFFD00000
7401AE4000
740006E000
7400007800
7400001E00
7400000740
7400000280
74000001C0
74000001D0
ENDCHAR
STARTCHAR Lacute
ENCODING 313
SWIDTH 701 0
DWIDTH 17 0
BBX 14 20 2 0
BITMAP
01900000
1F400000
A4000000
00000000
74000000
74000000
74000000
74000000
74000000
74000000
74000000
74000000
74000000
74000000
74000000
74000000
74000000
74000000
74000000
7FFFFFF0
ENDCHAR
STARTCHAR lacute
ENCODING 314
SWIDTH 709 0
DWIDTH 17 0
BBX 15 20 2 0
BITMAP
01900000
1F400000
A4000000
00000000
74000000
74000000
74000000
74000000
74000000
74000000
74000000
74000000
74000000
74000000
74000000
74000000
34000000
28000000
1E400000
02BFFFF8
ENDCHAR
STARTCHAR Lcommaaccent
ENCODING 315
SWIDTH 701 0
DWIDTH 17 0
BBX 14 21 2 -5
BITMAP
74000000
74000000
74000000
74000000
74000000
74000000
74000000
74000000
74000000
74000000
74000000
74000000
74000000
74000000
74000000
7FFFFFF0
00000000
00000000
00074000
00070000
000A0000
ENDCHAR
STARTCHAR lcommaaccent
ENCODING 316
SWIDTH 709 0
DWIDTH 17 0
BBX 15 21 2 -5
BITMAP
74000000
74000000
74000000
74000000
74000000
74000000
74000000
74000000
74000000
74000000
74000000
74000000
34000000
28000000
1E400000
02BFFFF8
00000000
00000000
0002C000
00038000
00034000
ENDCHAR
STARTCHAR Lcaron
ENCODING 317
SWIDTH 701 0
DWIDTH 17 0
BBX 14 16 2 0
BITMAP
74003800
74003400
74007000
7400A000
74000000
74000000
74000000
74000000
74000000
74000000
74000000
74000000
74000000
74000000
74000000
7FFFFFF0
ENDCHAR
STARTCHAR lcaron
ENCODING 318
SWIDTH 709 0
DWIDTH 17 0
BBX 15 16 2 0
BITMAP
74003800
74003400
74007000
7400A000
74000000
74000000
74000000
74000000
74000000
74000000
74000000
74000000
34000000
28000000
1E400000
02BFFFF8
ENDCHAR
STARTCHAR Ldot
ENCODING 319
SWIDTH 701 0
DWIDTH 17 0
BBX 14 16 2 0
BITMAP
74000000
74000000
74000000
74000000
74000000
74000000
74007800
74007800
74007800
74000000
74000000
74000000
74000000
74000000
74000000
7FFFFFF0
ENDCHAR
STARTCHAR ldotaccent
ENCODING 320
SWIDTH 709 0
DWIDTH 17 0
BBX 15 16 2 0
BITMAP
74000000
74000000
74000000
74000000
74000000
74000000
74003C00
74003C00
74003C00
74000000
74000000
74000000
34000000
28000000
1E400000
02BFFFF8
ENDCHAR
STARTCHAR Lslash
ENCODING 321
SWIDTH 701 0
DWIDTH 17 0
BBX 16 16 0 0
BITMAP
07400000
07400000
07400000
07400000
07400000
07418000
075E0000
07E00000
1F400000
A7400000
07400000
07400000
07400000
07400000
07400000
07FFFFFF
ENDCHAR
STARTCHAR lslash
ENCODING 322
SWIDTH 709 0
DWIDTH 17 0
BBX 17 16 0 0
BITMAP
0740000000
0740000000
0740000000
0740000000
0740000000
0741800000
075E000000
07E0000000
1F40000000
A740000000
0740000000
0740000000
0340000000
0280000000
01E4000000
002BFFFF80
ENDCHAR
STARTCHAR Nacute
ENCODING 323
SWIDTH 936 0
DWIDTH 22 0
BBX 18 20 2 0
BITMAP
0000018000
00002E4000
0000E00000
0000000000
78000000A0
7E000000A0
77800000A0
74E00000A0
74380000A0
741E0000A0
74078000A0
7401E000A0
74007800A0
74001E00A0
74000780A0
740001E0A0
74000074A0
7400001DA0
74000007E0
74000001E0
ENDCHAR
STARTCHAR nacute
ENCODING 324
SWIDTH 933 0
DWIDTH 22 0
BBX 18 20 2 0
BITMAP
0000028000
00006E4000
0001900000
0000000000
7401BFE400
746E401B40
76D00002C0
7E000000D0
74000000A0
74000000A0
74000000A0
74000000A0
74000000A0
74000000A0
74000000A0
74000000A0
74000000A0
74000000A0
74000000A0
74000000A0
ENDCHAR
STARTCHAR Ncommaaccent
ENCODING 325
SWIDTH 936 0
DWIDTH 22 0
BBX 18 21 2 -5
BITMAP
78000000A0
7E000000A0
77800000A0
74E00000A0
74380000A0
741E0000A0
74078000A0
7401E000A0
74007800A0
74001E00A0
74000780A0
740001E0A0
74000074A0
7400001DA0
74000007E0
74000001E0
0000000000
0000000000
0000700000
0000A00000
0000A00000
ENDCHAR
STARTCHAR ncommaaccent
ENCODING 326
SWIDTH 933 0
DWIDTH 22 0
BBX 18 21 2 -5
BITMAP
7401BFE400
746E401B40
76D00002C0
7E000000D0
74000000A0
74000000A0
74000000A0
74000000A0
74000000A0
74000000A0
74000000A0
74000000A0
74000000A0
74000000A0
74000000A0
74000000A0
0000000000
0000000000
0000B00000
0000A00000
0000900000
ENDCHAR
STARTCHAR Ncaron
ENCODING 327
SWIDTH 936 0
DWIDTH 22 0
BBX 18 20 2 0
BITMAP
002401A000
001B5B4000
0001B40000
0000000000
78000000A0
7E000000A0
77800000A0
74E00000A0
74380000A0
741E0000A0
74078000A0
7401E000A0
74007800A0
74001E00A0
74000780A0
740001E0A0
74000074A0
7400001DA0
74000007E0
74000001E0
ENDCHAR
STARTCHAR ncaron
ENCODING 328
SWIDTH 933 0
DWIDTH 22 0
BBX 18 20 2 0
BITMAP
0064019000
001A5E4000
0001A40000
0000000000
7401BFE400
746E401B40
76D00002C0
7E000000D0
74000000A0
74000000A0
74000000A0
74000000A0
74000000A0
74000000A0
74000000A0
74000000A0
74000000A0
74000000A0
74000000A0
74000000A0
ENDCHAR
STARTCHAR napostrophe
ENCODING 329
SWIDTH 1025 0
DWIDTH 25 0
BBX 22 16 0 0
BITMAP
743401AFE800
70342E501B40
A036E00001D0
D03E000000A0
0038000000B0
003400000070
003400000070
003400000070
003400000070
003400000070
003400000070
003400000070
003400000070
003400000070
003400000070
003400000070
ENDCHAR
STARTCHAR Eng
ENCODING 330
SWIDTH 936 0
DWIDTH 22 0
BBX 18 16 2 0
BITMAP
78000000A0
7B400000A0
75E00000A0
74280000A0
740B4000A0
7401D000A0
74007800A0
74000A00A0
740001D0A0
74000078A0
7400000AA0
74000002E0
74000000E0
74000002C0
7402901B40
74006FF900
ENDCHAR
STARTCHAR eng
ENCODING 331
SWIDTH 933 0
DWIDTH 22 0
BBX 18 16 2 0
BITMAP
7401BFE400
746E401B40
76D00002C0
7E000000D0
74000000A0
74000000A0
74000000A0
74000000A0
74000000A0
74000000A0
74000000A0
74000000A0
74000000E0
74000001D0
7402900B40
74006FF900
ENDCHAR
STARTCHAR Omacron
ENCODING 332
SWIDTH 983 0
DWIDTH 24 0
BBX 21 19 1 0
BITMAP
0001FFF00000
000000000000
000000000000
0006BFE90000
00B94016D000
078000007800
0E0000000E00
2C0000000740
380000000380
7400000002C0
7000000002C0
7000000002C0
7400000002C0
380000000380
2C0000000740
0E0000000E00
078000007800
00B94016D000
0006FFE90000
ENDCHAR
STARTCHAR omacron
ENCODING 333
SWIDTH 983 0
DWIDTH 24 0
BBX 21 19 1 0
BITMAP
0001FFF00000
000000000000
000000000000
0006BFE90000
00B94016D000
078000007800
0E0000000E00
2C0000000740
380000000380
7400000002C0
7000000002C0
7000000002C0
7400000002C0
380000000380
2C0000000740
0E0000000E00
078000007800
00B94016D000
0006FFE90000
ENDCHAR
STARTCHAR Obreve
ENCODING 334
SWIDTH 983 0
DWIDTH 24 0
BBX 21 20 1 0
BITMAP
000340280000
0001D0B40000
00006F900000
000000000000
0006BFE90000
00B94016D000
078000007800
0E0000000E00
2C0000000740
380000000380
7400000002C0
7000000002C0
7000000002C0
7400000002C0
380000000380
2C0000000740
0E0000000E00
078000007800
00B94016D000
0006FFE90000
ENDCHAR
STARTCHAR obreve
ENCODING 335
SWIDTH 983 0
DWIDTH 24 0
BBX 21 20 1 0
BITMAP
000340280000
0001D0B40000
00006F900000
000000000000
0006BFE90000
00B94016D000
078000007800
0E0000000E00
2C0000000740
380000000380
7400000002C0
7000000002C0
7000000002C0
7400000002C0
380000000380
2C0000000740
0E0000000E00
078000007800
00B94016D000
0006FFE90000
ENDCHAR
STARTCHAR Ohungarumlaut
ENCODING 336
SWIDTH 983 0
DWIDTH 24 0
BBX 21 20 1 0
BITMAP
000009090000
000078790000
000190900000
000000000000
0006BFE90000
00B94016D000
078000007800
0E0000000E00
2C0000000740
380000000380
7400000002C0
7000000002C0
7000000002C0
7400000002C0
380000000380
2C0000000740
0E0000000E00
078000007800
00B94016D000
0006FFE90000
ENDCHAR
STARTCHAR ohungarumlaut
ENCODING 337
SWIDTH 983 0
DWIDTH 24 0
BBX 21 20 1 0
BITMAP
000009090000
000078790000
000190900000
000000000000
0006BFE90000
00B94016D000
078000007800
0E0000000E00
2C0000000740
380000000380
7400000002C0
7000000002C0
7000000002C0
7400000002C0
380000000380
2C0000000740
0E0000000E00
078000007800
00B94016D000
0006FFE90000
ENDCHAR
STARTCHAR OE
ENCODING 338
SWIDTH 1338 0
DWIDTH 32 0
BBX 30 16 1 0
BITMAP
0006BFFFFFFFFFC0
00B94006D0000000
07800001D0000000
0E000001D0000000
2C000001D0000000
38000001D0000000
74000001D0000000
70000001FFFFFF80
70000001D0000000
74000001D0000000
34000001D0000000
2C000001D0000000
0E000001D0000000
07800001D0000000
00B90006D0000000
0006FFFFFFFFFFD0
ENDCHAR
STARTCHAR oe
ENCODING 339
SWIDTH 1688 0
DWIDTH 41 0
BBX 38 16 1 0
BITMAP
0006BFE900001BFE9000
00B94016D002E401B800
07800000780A00000B40
0E0000000D28000002C0
2C00000007B0000000E0
3800000003D0000000B0
7400000002C000000070
7000000002FFFFFFFFF0
7000000002C000000000
7400000002D000000000
3800000003E000000000
2C00000007B000000000
0E0000000D2800000000
07800000780B40000180
00B94016D001E5005A40
0006FFE900001AFF9000
ENDCHAR
STARTCHAR Racute
ENCODING 340
SWIDTH 833 0
DWIDTH 20 0
BBX 17 20 2 0
BITMAP
0000180000
0002E40000
000D000000
0000000000
7FFFFE8000
740001B400
7400001D00
7400000E00
7400000E00
7400000D00
7400001D00
740001B400
7FFFFF9000
74000B4000
740002C000
740000E000
7400007400
7400002D00
7400000B00
7400000380
ENDCHAR
STARTCHAR racute
ENCODING 341
SWIDTH 609 0
DWIDTH 15 0
BBX 13 20 2 0
BITMAP
0000A000
001B9000
00640000
00000000
7406BF80
74690040
76D00000
7A000000
78000000
74000000
74000000
74000000
74000000
74000000
74000000
74000000
74000000
74000000
74000000
74000000
ENDCHAR
STARTCHAR Rcommaaccent
ENCODING 342
SWIDTH 833 0
DWIDTH 20 0
BBX 17 21 2 -5
BITMAP
7FFFFE8000
740001B400
7400001D00
7400000E00
7400000E00
7400000D00
7400001D00
740001B400
7FFFFF9000
74000B4000
740002C000
740000E000
7400007400
7400002D00
7400000B00
7400000380
0000000000
0000000000
0002C00000
0003800000
0003400000
ENDCHAR
STARTCHAR rcommaaccent
ENCODING 343
SWIDTH 609 0
DWIDTH 15 0
BBX 13 21 2 -5
BITMAP
7406BF80
74690040
76D00000
7A000000
78000000
74000000
74000000
74000000
74000000
74000000
74000000
74000000
74000000
74000000
74000000
74000000
00000000
00000000
74000000
70000000
A0000000
ENDCHAR
STARTCHAR Rcaron
ENCODING 344
SWIDTH 833 0
DWIDTH 20 0
BBX 17 20 2 0
BITMAP
0640190000
01B5B40000
001A400000
0000000000
7FFFFE8000
740001B400
7400001D00
7400000E00
7400000E00
7400000D00
7400001D00
740001B400
7FFFFF9000
74000B4000
740002C000
740000E000
7400007400
7400002D00
7400000B00
7400000380
ENDCHAR
STARTCHAR rcaron
ENCODING 345
SWIDTH 609 0
DWIDTH 15 0
BBX 13 20 2 0
BITMAP
19006400
06D69000
00690000
00000000
7406BF80
74690040
76D00000
7A000000
78000000
74000000
74000000
74000000
74000000
74000000
74000000
74000000
74000000
74000000
74000000
74000000
ENDCHAR
STARTCHAR Sacute
ENCODING 346
SWIDTH 787 0
DWIDTH 19 0
BBX 15 20 2 0
BITMAP
00001800
0002E400
000A4000
00000000
06BFE400
2E401680
B0000060
E0000000
E0000000
78000000
1B900000
006F9000
00016E40
000001E0
00000038
0000002C
0000002C
80000078
694006E0
02BFF900
ENDCHAR
STARTCHAR sacute
ENCODING 347
SWIDTH 787 0
DWIDTH 19 0
BBX 15 20 2 0
BITMAP
00001800
0002E400
000A4000
00000000
06BFE400
2E401680
B0000060
E0000000
E0000000
78000000
1B900000
006F9000
00016E40
000001E0
00000038
0000002C
0000002C
80000078
694006E0
02BFF900
ENDCHAR
STARTCHAR Scircumflex
ENCODING 348
SWIDTH 787 0
DWIDTH 19 0
BBX 15 20 2 0
BITMAP
000B4000
01B9B400
02400A00
00000000
06BFE400
2E401680
B0000060
E0000000
E0000000
78000000
1B900000
006F9000
00016E40
000001E0
00000038
0000002C
0000002C
80000078
694006E0
02BFF900
ENDCHAR
STARTCHAR scircumflex
ENCODING 349
SWIDTH 787 0
DWIDTH 19 0
BBX 15 20 2 0
BITMAP
000B4000
01B9B400
02400A00
00000000
06BFE400
2E401680
B0000060
E0000000
E0000000
78000000
1B900000
006F9000
00016E40
000001E0
00000038
0000002C
0000002C
80000078
694006E0
02BFF900
ENDCHAR
STARTCHAR Scedilla
ENCODING 350
SWIDTH 787 0
DWIDTH 19 0
BBX 15 21 2 -5
BITMAP
06BFE400
2E401680
B0000060
E0000000
E0000000
78000000
1B900000
016F9000
00016E40
000002E0
00000038
0000002C
0000002C
80000078
694006E0
06BFF900
00060000
000BD000
00007000
00007000
007F9000
ENDCHAR
STARTCHAR scedilla
ENCODING 351
SWIDTH 787 0
DWIDTH 19 0
BBX 15 21 2 -5
BITMAP
06BFE400
2E401680
B0000060
E0000000
E0000000
78000000
1B900000
016F9000
00016E40
000002E0
00000038
0000002C
0000002C
80000078
694006E0
06BFF900
00060000
000BD000
00007000
00007000
007F9000
ENDCHAR
STARTCHAR Scaron
ENCODING 352
SWIDTH 787 0
DWIDTH 19 0
BBX 15 20 2 0
BITMAP
02400A00
01B9B400
000B4000
00000000
06BFE400
2E401680
B0000060
E0000000
E0000000
78000000
1B900000
006F9000
00016E40
000001E0
00000038
0000002C
0000002C
80000078
694006E0
02BFF900
ENDCHAR
STARTCHAR scaron
ENCODING 353
SWIDTH 787 0
DWIDTH 19 0
BBX 15 20 2 0
BITMAP
02400A00
01B9B400
000B4000
00000000
06BFE400
2E401680
B0000060
E0000000
E0000000
78000000
1B900000
006F9000
00016E40
000001E0
00000038
0000002C
0000002C
80000078
694006E0
02BFF900
ENDCHAR
STARTCHAR Tcommaaccent
ENCODING 354
SWIDTH 708 0
DWIDTH 17 0
BBX 17 21 0 -5
BITMAP
BFFFFFFF80
0001D00000
0001D00000
0001D00000
0001D00000
0001D00000
0001D00000
0001D00000
0001D00000
0001D00000
0001D00000
0001D00000
0001D00000
0001D00000
0001D00000
0001D00000
0000000000
0000000000
0001D00000
0001C00000
0002800000
ENDCHAR
STARTCHAR tcommaaccent
ENCODING 355
SWIDTH 708 0
DWIDTH 17 0
BBX 17 21 0 -5
BITMAP
BFFFFFFF80
0001D00000
0001D00000
0001D00000
0001D00000
0001D00000
0001D00000
0001D00000
0001D00000
0001D00000
0001D00000
0001D00000
0001D00000
0001D00000
0001D00000
0001D00000
0000000000
0000000000
0001D00000
0001C00000
0002800000
ENDCHAR
STARTCHAR Tcaron
ENCODING 356
SWIDTH 708 0
DWIDTH 17 0
BBX 17 20 0 0
BITMAP
00A0028000
002E6E0000
0002E00000
0000000000
BFFFFFFF80
0001D00000
0001D00000
0001D00000
0001D00000
0001D00000
0001D00000
0001D00000
0001D00000
0001D00000
0001D00000
0001D00000
0001D00000
0001D00000
0001D00000
0001D00000
ENDCHAR
STARTCHAR tcaron
ENCODING 357
SWIDTH 708 0
DWIDTH 17 0
BBX 17 20 0 0
BITMAP
00A0018000
002E6E0000
0002E00000
0000000000
BFFFFFFF80
0001D00000
0001D00000
0001D00000
0001D00000
0001D00000
0001D00000
0001D00000
0001D00000
0001D00000
0001D00000
0001D00000
0001D00000
0001D00000
0001D00000
0001D00000
ENDCHAR
STARTCHAR Tbar
ENCODING 358
SWIDTH 708 0
DWIDTH 17 0
BBX 17 16 0 0
BITMAP
BFFFFFFF80
0001D00000
0001D00000
0001D00000
0001D00000
0001D00000
0FFFFFFC00
0001D00000
0001D00000
0001D00000
0001D00000
0001D00000
0001D00000
0001D00000
0001D00000
0001D00000
ENDCHAR
STARTCHAR tbar
ENCODING 359
SWIDTH 708 0
DWIDTH 17 0
BBX 17 16 0 0
BITMAP
BFFFFFFF80
0001D00000
0001D00000
0001D00000
0001D00000
0001D00000
0FFFFFFC00
0001D00000
0001D00000
0001D00000
0001D00000
0001D00000
0001D00000
0001D00000
0001D00000
0001D00000
ENDCHAR
STARTCHAR Utilde
ENCODING 360
SWIDTH 891 0
DWIDTH 21 0
BBX 17 20 2 0
BITMAP
001E418000
0031E28000
00602E0000
0000000000
7000000280
7000000280
7000000280
7000000280
7000000280
7000000280
7000000280
7000000280
7000000280
7000000280
7000000280
7000000280
3400000340
2D00000B00
079401B800
006FFE9000
ENDCHAR
STARTCHAR utilde
ENCODING 361
SWIDTH 931 0
DWIDTH 22 0
BBX 18 20 2 0
BITMAP
000B40D000
0028A5C000
00341F4000
0000000000
70000000E0
70000000E0
70000000E0
70000000E0
70000000E0
70000000E0
70000000E0
70000000E0
70000000E0
70000000E0
70000000E0
74000000E0
34000007E0
2C000069E0
0B401B90E0
01BFE500E0
ENDCHAR
STARTCHAR Umacron
ENCODING 362
SWIDTH 891 0
DWIDTH 21 0
BBX 17 19 2 0
BITMAP
002FFF0000
0000000000
0000000000
7000000280
7000000280
7000000280
7000000280
7000000280
7000000280
7000000280
7000000280
7000000280
7000000280
7000000280
7000000280
3400000340
2D00000B00
079401B800
006FFE9000
ENDCHAR
STARTCHAR umacron
ENCODING 363
SWIDTH 931 0
DWIDTH 22 0
BBX 18 19 2 0
BITMAP
000FFF4000
0000000000
0000000000
70000000E0
70000000E0
70000000E0
70000000E0
70000000E0
70000000E0
70000000E0
70000000E0
70000000E0
70000000E0
70000000E0
74000000E0
34000007E0
2C000069E0
0B401B90E0
01BFE500E0
ENDCHAR
STARTCHAR Ubreve
ENCODING 364
SWIDTH 891 0
DWIDTH 21 0
BBX 17 20 2 0
BITMAP
0034028000
002D0B0000
0007F80000
0000000000
7000000280
7000000280
7000000280
7000000280
7000000280
7000000280
7000000280
7000000280
7000000280
7000000280
7000000280
7000000280
3400000340
2D00000B00
079401B800
006FFE9000
ENDCHAR
STARTCHAR ubreve
ENCODING 365
SWIDTH 931 0
DWIDTH 22 0
BBX 18 20 2 0
BITMAP
002801C000
001E074000
0006F90000
0000000000
70000000E0
70000000E0
70000000E0
70000000E0
70000000E0
70000000E0
70000000E0
70000000E0
70000000E0
70000000E0
70000000E0
74000000E0
34000007E0
2C000069E0
0B401B90E0
01BFE500E0
ENDCHAR
STARTCHAR Uring
ENCODING 366
SWIDTH 891 0
DWIDTH 21 0
BBX 17 21 2 0
BITMAP
0007F80000
001D0A0000
001D0A0000
0007F80000
0000000000
7000000280
7000000280
7000000280
7000000280
7000000280
7000000280
7000000280
7000000280
7000000280
7000000280
7000000280
7000000280
3400000340
2D00000B00
079401B800
006FFE9000
ENDCHAR
STARTCHAR uring
ENCODING 367
SWIDTH 931 0
DWIDTH 22 0
BBX 18 21 2 0
BITMAP
0002F90000
000A070000
000A070000
0002F90000
0000000000
70000000E0
70000000E0
70000000E0
70000000E0
70000000E0
70000000E0
70000000E0
70000000E0
70000000E0
70000000E0
70000000E0
74000000E0
34000007E0
2C000069E0
0B401B90E0
01BFE500E0
ENDCHAR
STARTCHAR Uhungarumlaut
ENCODING 368
SWIDTH 891 0
DWIDTH 21 0
BBX 17 20 2 0
BITMAP
0001809000
0007878000
0019190000
0000000000
7000000280
7000000280
7000000280
7000000280
7000000280
7000000280
7000000280
7000000280
7000000280
7000000280
7000000280
7000000280
3400000340
2D00000B00
079401B800
006FFE9000
ENDCHAR
STARTCHAR uhungarumlaut
ENCODING 369
SWIDTH 931 0
DWIDTH 22 0
BBX 18 20 2 0
BITMAP
0000A06000
0007D2D000
0009090000
0000000000
70000000E0
70000000E0
70000000E0
70000000E0
70000000E0
70000000E0
70000000E0
70000000E0
70000000E0
70000000E0
70000000E0
74000000E0
34000007E0
2C000069E0
0B401B90E0
01BFE500E0
ENDCHAR
STARTCHAR Uogonek
ENCODING 370
SWIDTH 891 0
DWIDTH 21 0
BBX 17 20 2 -4
BITMAP
7000000280
7000000280
7000000280
7000000280
7000000280
7000000280
7000000280
7000000280
7000000280
7000000280
7000000280
7000000280
3400000340
2D00000B00
079401B800
006FFE9000
0002800000
0007000000
0007400000
0002FE0000
ENDCHAR
STARTCHAR uogonek
ENCODING 371
SWIDTH 931 0
DWIDTH 22 0
BBX 20 20 2 -4
BITMAP
70000000E0
70000000E0
70000000E0
70000000E0
70000000E0
70000000E0
70000000E0
70000000E0
70000000E0
70000000E0
70000000E0
74000000E0
34000007E0
2C000069E0
0B401B90E0
01BFE500E0
0000000280
0000000A00
0000000E00
00000006FD
ENDCHAR
STARTCHAR Wcircumflex
ENCODING 372
SWIDTH 1266 0
DWIDTH 30 0
BBX 29 20 1 0
BITMAP
0000006D00000000
000006D6D0000000
0000090064000000
0000000000000000
E000003D00000740
B000007E00000B00
380000A700000D00
2C0000D380002C00
1D0002C2C0003800
0E000381D0007400
07000740E000B000
03400B007000D000
02C00D003401C000
01D01C0028038000
00E028001D074000
007074000E0B0000
0034B0000B0D0000
002CE000035C0000
001EC00002B80000
000B800001F40000
ENDCHAR
STARTCHAR wcircumflex
ENCODING 373
SWIDTH 1266 0
DWIDTH 30 0
BBX 29 20 1 0
BITMAP
0000006D00000000
000006D6D0000000
0000090064000000
0000000000000000
E000003D00000740
B000007E00000B00
380000A700000D00
2C0000D380002C00
1D0002C2C0003800
0E000381D0007400
07000740E000B000
03400B007000D000
02C00D003401C000
01D01C0028038000
00E028001D074000
007074000E0B0000
0034B0000B0D0000
002CE000035C0000
001EC00002B80000
000B800001F40000
ENDCHAR
STARTCHAR Ycircumflex
ENCODING 374
SWIDTH 763 0
DWIDTH 18 0
BBX 16 20 1 0
BITMAP
0006D000
006D6D00
00900640
00000000
B000000B
3800002D
0E000074
074001E0
01D00380
00B40B00
002C2D00
000E7400
0007D000
0002C000
0002C000
0002C000
0002C000
0002C000
0002C000
0002C000
ENDCHAR
STARTCHAR ycircumflex
ENCODING 375
SWIDTH 911 0
DWIDTH 22 0
BBX 17 20 2 0
BITMAP
0001E00000
001E6E0000
00A0018000
0000000000
E0000001C0
E0000001C0
E0000001C0
E0000001C0
A0000001C0
A0000002C0
70000007C0
34000019C0
1D000061C0
07900781C0
00AFE801C0
00000002C0
0000000740
9000002E00
6E4006F400
01BFFA4000
ENDCHAR
STARTCHAR Ydieresis
ENCODING 376
SWIDTH 763 0
DWIDTH 18 0
BBX 16 19 1 0
BITMAP
00381D00
00381D00
00000000
B000000B
3800002D
0E000074
074001E0
01D00380
00B40B00
002C2D00
000E7400
0007D000
0002C000
0002C000
0002C000
0002C000
0002C000
0002C000
0002C000
ENDCHAR
STARTCHAR Zacute
ENCODING 377
SWIDTH 728 0
DWIDTH 17 0
BBX 15 20 1 0
BITMAP
00000A00
0001B900
00064000
00000000
3FFFFFF8
000000F0
000002C0
00000B40
00002D00
00007800
0001E000
0003C000
000B0000
002D0000
00740000
01E00000
03800000
0F000000
2C000000
7FFFFFFC
ENDCHAR
STARTCHAR zacute
ENCODING 378
SWIDTH 728 0
DWIDTH 17 0
BBX 15 20 1 0
BITMAP
00000A00
0001B900
00064000
00000000
3FFFFFF8
000000F0
000002C0
00000B40
00002D00
00007800
0001E000
0003C000
000B0000
002D0000
00740000
01E00000
03800000
0F000000
2C000000
7FFFFFFC
ENDCHAR
STARTCHAR Zdotaccent
ENCODING 379
SWIDTH 728 0
DWIDTH 17 0
BBX 15 19 1 0
BITMAP
00038000
00038000
00000000
3FFFFFF8
000000F0
000002C0
00000B40
00002D00
00007800
0001E000
0003C000
000B0000
002D0000
00740000
01E00000
03800000
0F000000
2C000000
7FFFFFFC
ENDCHAR
STARTCHAR zdotaccent
ENCODING 380
SWIDTH 728 0
DWIDTH 17 0
BBX 15 19 1 0
BITMAP
00038000
00038000
00000000
3FFFFFF8
000000F0
000002C0
00000B40
00002D00
00007800
0001E000
0003C000
000B0000
002D0000
00740000
01E00000
03800000
0F000000
2C000000
7FFFFFFC
ENDCHAR
STARTCHAR Zcaron
ENCODING 381
SWIDTH 728 0
DWIDTH 17 0
BBX 15 20 1 0
BITMAP
01900640
00797900
00069000
00000000
3FFFFFF8
000000F0
000002C0
00000B40
00002D00
00007800
0001E000
0003C000
000B0000
002D0000
00740000
01E00000
03800000
0F000000
2C000000
7FFFFFFC
ENDCHAR
STARTCHAR zcaron
ENCODING 382
SWIDTH 728 0
DWIDTH 17 0
BBX 15 20 1 0
BITMAP
01900640
00797900
00069000
00000000
3FFFFFF8
000000F0
000002C0
00000B40
00002D00
00007800
0001E000
0003C000
000B0000
002D0000
00740000
01E00000
03800000
0F000000
2C000000
7FFFFFFC
ENDCHAR
STARTCHAR florin
ENCODING 402
SWIDTH 835 0
DWIDTH 20 0
BBX 20 17 0 -1
BITMAP
0000002FE4
000000E419
000002C000
0000038000
0000074000
00000B0000
000BFFFE00
00001D0000
00002C0000
0000280000
0000340000
0000700000
0000A00000
0000D00000
0002C00000
640B400000
1BF9000000
ENDCHAR
STARTCHAR AEacute
ENCODING 508
SWIDTH 1172 0
DWIDTH 28 0
BBX 27 20 0 0
BITMAP
0000000001A000
000000001B9000
00000000640000
00000000000000
000007FFFFFFF0
00000D74000000
00002874000000
00007074000000
0001D074000000
00028074000000
000B0074000000
001D007FFFFFE0
00380074000000
00B00074000000
01FFFFF4000000
03400074000000
0B000074000000
1D000074000000
38000074000000
B400007FFFFFF4
ENDCHAR
STARTCHAR aeacute
ENCODING 509
SWIDTH 1551 0
DWIDTH 37 0
BBX 35 20 1 0
BITMAP
0000000000A0000000
000000001B90000000
000000006400000000
000000000000000000
001BFE900006FF9000
06A4016E00B5006E00
0900000287400002C0
00000000DD000000A0
00000000B800000074
00000000B000000028
00005AAFF000000028
006FE950BFFFFFFFFC
07E40000A000000000
2D000000B000000000
740000007400000000
700000003800000000
700000007E00000000
380000078280000050
1F5005B80079401B80
01BFFA400006BFE400
ENDCHAR
STARTCHAR Oslashacute
ENCODING 510
SWIDTH 983 0
DWIDTH 24 0
BBX 21 22 1 -2
BITMAP
000000280000
000006E40000
000019003800
00000000A000
0006BFE9D000
00B9401BD000
0780000E7800
0E0000280E00
2C0000700740
380000D00380
7400028002C0
70000B0002C0
70001D0002C0
7400380002C0
3800A0000380
2C01C0000740
0E0740000E00
079E00007800
00BD4016D000
0076BFE90000
01D000000000
028000000000
ENDCHAR
STARTCHAR oslashacute
ENCODING 511
SWIDTH 983 0
DWIDTH 24 0
BBX 21 22 1 -2
BITMAP
000000280000
000006E40000
000019003800
00000000A000
0006BFE9D000
00B9401BD000
0780000E7800
0E0000280E00
2C0000700740
380000D00380
7400028002C0
70000B0002C0
70001D0002C0
7400380002C0
3800A0000380
2C01C0000740
0E0740000E00
079E00007800
00BD4016D000
0076BFE90000
01D000000000
028000000000
ENDCHAR
STARTCHAR dotlessj
ENCODING 567
SWIDTH 590 0
DWIDTH 14 0
BBX 12 16 0 0
BITMAP
00000E
00000E
00000E
00000E
00000E
00000E
00000E
00000E
00000E
00000E
00000E
00000D
00001D
000028
9401E0
5BFE40
ENDCHAR
STARTCHAR circumflex
ENCODING 710
SWIDTH 527 0
DWIDTH 13 0
BBX 9 3 2 13
BITMAP
02D000
2E6D00
900280
ENDCHAR
STARTCHAR caron
ENCODING 711
SWIDTH 527 0
DWIDTH 13 0
BBX 9 3 2 13
BITMAP
900280
6E6D00
02D000
ENDCHAR
STARTCHAR breve
ENCODING 728
SWIDTH 527 0
DWIDTH 13 0
BBX 9 3 2 13
BITMAP
B00740
381E00
0BF400
ENDCHAR
STARTCHAR dotaccent
ENCODING 729
SWIDTH 527 0
DWIDTH 13 0
BBX 3 2 5 13
BITMAP
B4
B4
ENDCHAR
STARTCHAR ring
ENCODING 730
SWIDTH 527 0
DWIDTH 13 0
BBX 7 4 3 13
BITMAP
2FD0
A074
A074
2FD0
ENDCHAR
STARTCHAR ogonek
ENCODING 731
SWIDTH 527 0
DWIDTH 13 0
BBX 6 4 3 -4
BITMAP
0900
3400
7400
2FE0
ENDCHAR
STARTCHAR tilde
ENCODING 732
SWIDTH 527 0
DWIDTH 13 0
BBX 9 3 2 13
BITMAP
2E0240
62D300
906D00
ENDCHAR
STARTCHAR hungarumlaut
ENCODING 733
SWIDTH 527 0
DWIDTH 13 0
BBX 8 3 3 13
BITMAP
0606
2D2D
A0A0
ENDCHAR
STARTCHAR commaaccent
ENCODING 806
SWIDTH 527 0
DWIDTH 13 0
BBX 3 3 5 -5
BITMAP
74
B0
A0
ENDCHAR
STARTCHAR mu
ENCODING 956
SWIDTH 705 0
DWIDTH 17 0
BBX 14 16 1 -5
BITMAP
074000E0
070000D0
0B0001D0
0A0001C0
0D000280
1D000380
1C000340
2C000B40
2D002B40
3B419340
35BE4380
70000000
B0000000
A0000000
E0000000
D0000000
ENDCHAR
STARTCHAR Wgrave
ENCODING 7808
SWIDTH 1266 0
DWIDTH 30 0
BBX 29 20 1 0
BITMAP
00000A4000000000
000006E400000000
0000001900000000
0000000000000000
E000003D00000740
B000007E00000B00
380000A700000D00
2C0000D380002C00
1D0002C2C0003800
0E000381D0007400
07000740E000B000
03400B007000D000
02C00D003401C000
01D01C0028038000
00E028001D074000
007074000E0B0000
0034B0000B0D0000
002CE000035C0000
001EC00002B80000
000B800001F40000
ENDCHAR
STARTCHAR wgrave
ENCODING 7809
SWIDTH 1266 0
DWIDTH 30 0
BBX 29 20 1 0
BITMAP
00000A4000000000
000006E400000000
0000001900000000
0000000000000000
E000003D00000740
B000007E00000B00
380000A700000D00
2C0000D380002C00
1D0002C2C0003800
0E000381D0007400
07000740E000B000
03400B007000D000
02C00D003401C000
01D01C0028038000
00E028001D074000
007074000E0B0000
0034B0000B0D0000
002CE000035C0000
001EC00002B80000
000B800001F40000
ENDCHAR
STARTCHAR Wacute
ENCODING 7810
SWIDTH 1266 0
DWIDTH 30 0
BBX 29 20 1 0
BITMAP
0000000060000000
0000000B90000000
0000003800000000
0000000000000000
E000003D00000740
B000007E00000B00
380000A700000D00
2C0000D380002C00
1D0002C2C0003800
0E000381D0007400
07000740E000B000
03400B007000D000
02C00D003401C000
01D01C0028038000
00E028001D074000
007074000E0B0000
0034B0000B0D0000
002CE000035C0000
001EC00002B80000
000B800001F40000
ENDCHAR
STARTCHAR wacute
ENCODING 7811
SWIDTH 1266 0
DWIDTH 30 0
BBX 29 20 1 0
BITMAP
0000000060000000
0000000B90000000
0000003800000000
0000000000000000
E000003D00000740
B000007E00000B00
380000A700000D00
2C0000D380002C00
1D0002C2C0003800
0E000381D0007400
07000740E000B000
03400B007000D000
02C00D003401C000
01D01C0028038000
00E028001D074000
007074000E0B0000
0034B0000B0D0000
002CE000035C0000
001EC00002B80000
000B800001F40000
ENDCHAR
STARTCHAR Wdieresis
ENCODING 7812
SWIDTH 1266 0
DWIDTH 30 0
BBX 29 19 1 0
BITMAP
00000381D0000000
00000381D0000000
0000000000000000
E000003D00000740
B000007E00000B00
380000A700000D00
2C0000D380002C00
1D0002C2C0003800
0E000381D0007400
07000740E000B000
03400B007000D000
02C00D003401C000
01D01C0028038000
00E028001D074000
007074000E0B0000
0034B0000B0D0000
002CE000035C0000
001EC00002B80000
000B800001F40000
ENDCHAR
STARTCHAR wdieresis
ENCODING 7813
SWIDTH 1266 0
DWIDTH 30 0
BBX 29 19 1 0
BITMAP
00000381D0000000
00000381D0000000
0000000000000000
E000003D00000740
B000007E00000B00
380000A700000D00
2C0000D380002C00
1D0002C2C0003800
0E000381D0007400
07000740E000B000
03400B007000D000
02C00D003401C000
01D01C0028038000
00E028001D074000
007074000E0B0000
0034B0000B0D0000
002CE000035C0000
001EC00002B80000
000B800001F40000
ENDCHAR
STARTCHAR Ygrave
ENCODING 7922
SWIDTH 763 0
DWIDTH 18 0
BBX 16 20 1 0
BITMAP
00A40000
006E4000
00019000
00000000
B000000B
3800002D
0E000074
074001E0
01D00380
00B40B00
002C2D00
000E7400
0007D000
0002C000
0002C000
0002C000
0002C000
0002C000
0002C000
0002C000
ENDCHAR
STARTCHAR ygrave
ENCODING 7923
SWIDTH 911 0
DWIDTH 22 0
BBX 17 20 2 0
BITMAP
0064000000
001B800000
0001A00000
0000000000
E0000001C0
E0000001C0
E0000001C0
E0000001C0
A0000001C0
A0000002C0
70000007C0
34000019C0
1D000061C0
07900781C0
00AFE801C0
00000002C0
0000000740
9000002E00
6E4006F400
01BFFA4000
ENDCHAR
STARTCHAR endash
ENCODING 8211
SWIDTH 419 0
DWIDTH 10 0
BBX 10 1 0 7
BITMAP
BFFFE0
ENDCHAR
STARTCHAR emdash
ENCODING 8212
SWIDTH 1000 0
DWIDTH 24 0
BBX 24 1 0 7
BITMAP
FFFFFFFFFFFF
ENDCHAR
STARTCHAR quoteleft
ENCODING 8216
SWIDTH 163 0
DWIDTH 4 0
BBX 2 4 1 12
BITMAP
30
70
A0
E0
ENDCHAR
STARTCHAR quoteright
ENCODING 8217
SWIDTH 163 0
DWIDTH 4 0
BBX 3 4 0 12
BITMAP
2C
28
34
70
ENDCHAR
STARTCHAR quotesinglbase
ENCODING 8218
SWIDTH 163 0
DWIDTH 4 0
BBX 3 4 0 -2
BITMAP
2C
28
34
70
ENDCHAR
STARTCHAR quotedblleft
ENCODING 8220
SWIDTH 303 0
DWIDTH 7 0
BBX 6 4 1 12
BITMAP
3090
70D0
A1C0
E2C0
ENDCHAR
STARTCHAR quotedblright
ENCODING 8221
SWIDTH 303 0
DWIDTH 7 0
BBX 7 4 0 12
BITMAP
2C74
2870
34A0
7090
ENDCHAR
STARTCHAR quotedblbase
ENCODING 8222
SWIDTH 303 0
DWIDTH 7 0
BBX 7 4 0 -2
BITMAP
2C74
2870
34A0
7090
ENDCHAR
STARTCHAR dagger
ENCODING 8224
SWIDTH 500 0
DWIDTH 12 0
BBX 8 16 2 0
BITMAP
0280
0280
0280
0280
FFFF
0280
0280
0280
0280
0280
0280
0280
0280
0280
0280
0280
ENDCHAR
STARTCHAR daggerdbl
ENCODING 8225
SWIDTH 500 0
DWIDTH 12 0
BBX 8 16 2 0
BITMAP
0280
0280
0280
0280
FFFF
0280
0280
0280
0280
FFFF
0280
0280
0280
0280
0280
0280
ENDCHAR
STARTCHAR bullet
ENCODING 8226
SWIDTH 352 0
DWIDTH 8 0
BBX 5 5 2 6
BITMAP
6E00
FF40
FF40
FF40
6E00
ENDCHAR
STARTCHAR ellipsis
ENCODING 8230
SWIDTH 555 0
DWIDTH 13 0
BBX 11 3 1 0
BITMAP
B4783C
B4783C
B4783C
ENDCHAR
STARTCHAR perthousand
ENCODING 8240
SWIDTH 1401 0
DWIDTH 34 0
BBX 32 16 1 0
BITMAP
07F90001D0000000
2907400740000000
7001C00E00000000
A000D02800000000
A000D0B000000000
7001C1D000000000
2907474000000000
07F90E0000000000
0000281BE4006F90
0000B0741E02D074
0001D1D00747001C
000741C0028A000D
000E01C0028A000D
002801D00747001C
00B000741E02D074
01D0001BE4006F90
ENDCHAR
STARTCHAR guilsinglleft
ENCODING 8249
SWIDTH 257 0
DWIDTH 6 0
BBX 4 9 1 4
BITMAP
02
0A
2C
74
E0
74
2C
0A
02
ENDCHAR
STARTCHAR guilsinglright
ENCODING 8250
SWIDTH 257 0
DWIDTH 6 0
BBX 5 9 1 4
BITMAP
9000
B400
2C00
0A00
0740
0A00
2C00
B400
9000
ENDCHAR
STARTCHAR fraction
ENCODING 8260
SWIDTH 200 0
DWIDTH 5 0
BBX 15 16 -5 0
BITMAP
00000074
000001D0
00000380
00000A00
00002C00
00007400
0001D000
00038000
000A0000
002C0000
00740000
01D00000
03800000
0A000000
2C000000
74000000
ENDCHAR
STARTCHAR Euro
ENCODING 8364
SWIDTH 833 0
DWIDTH 20 0
BBX 17 16 1 0
BITMAP
0001BFE400
002E401A40
00B4000080
02C0000000
0340000000
0700000000
FFFFFFC000
0E00000000
0E00000000
FFFFFF0000
0B00000000
0740000000
02C0000000
00B4000080
002E401A40
0001BFE400
ENDCHAR
STARTCHAR trademark
ENCODING 8482
SWIDTH 773 0
DWIDTH 19 0
BBX 17 7 0 9
BITMAP
7FF5C00740
0301E00F40
0301A01B40
0301983340
0301895340
030186C340
0301824340
ENDCHAR
STARTCHAR partialdiff
ENCODING 8706
SWIDTH 790 0
DWIDTH 19 0
BBX 17 16 1 0
BITMAP
001BFE4000
006401F400
0000002D00
0000000A00
0000000740
0000000340
006FF90340
0790069340
1D00002740
3400000B00
7000000B00
B000000D00
7000002800
380000B000
0B501B8000
01BFE80000
ENDCHAR
STARTCHAR minus
ENCODING 8722
SWIDTH 634 0
DWIDTH 15 0
BBX 12 1 2 7
BITMAP
FFFFFD
ENDCHAR
STARTCHAR uni2215
ENCODING 8725
SWIDTH 200 0
DWIDTH 5 0
BBX 15 16 -5 0
BITMAP
00000074
000001D0
00000380
00000A00
00002C00
00007400
0001D000
00038000
000A0000
002C0000
00740000
01D00000
03800000
0A000000
2C000000
74000000
ENDCHAR
STARTCHAR approxequal
ENCODING 8776
SWIDTH 634 0
DWIDTH 15 0
BBX 12 7 2 5
BITMAP
2F8001
90B918
4006E4
000000
2F8001
90B918
4006E4
ENDCHAR
STARTCHAR notequal
ENCODING 8800
SWIDTH 634 0
DWIDTH 15 0
BBX 12 13 2 1
BITMAP
000340
000700
000A00
000D00
FFFFFD
002800
007400
00B000
FFFFFD
01C000
02C000
038000
074000
ENDCHAR
STARTCHAR lessequal
ENCODING 8804
SWIDTH 634 0
DWIDTH 15 0
BBX 13 13 1 1
BITMAP
00000640
00006900
00079000
01B90000
1B800000
7D000000
1B800000
01B90000
00079000
00006900
00000640
00000000
3FFFFF40
ENDCHAR
STARTCHAR greaterequal
ENCODING 8805
SWIDTH 634 0
DWIDTH 15 0
BBX 12 13 2 1
BITMAP
900000
6D0000
02E000
002E40
0001F4
00002D
0001F4
002E40
02E000
6D0000
900000
000000
FFFFFD
ENDCHAR
STARTCHAR fi
ENCODING 64257
SWIDTH 1104 0
DWIDTH 27 0
BBX 22 16 2 0
BITMAP
006FFFFF40A0
0B94000000A0
2D00000000A0
3800000000A0
7400000000A0
7400000000A0
7400000000A0
7FFFFFFF00A0
7400000000A0
7400000000A0
7400000000A0
7400000000A0
7400000000A0
7400000000A0
7400000000A0
7400000000A0
ENDCHAR
STARTCHAR fl
ENCODING 64258
SWIDTH 1527 0
DWIDTH 37 0
BBX 35 16 2 0
BITMAP
006FFFFF40A0000000
0B94000000A0000000
2D00000000A0000000
3800000000A0000000
7400000000A0000000
7400000000A0000000
7400000000A0000000
7FFFFFFF00A0000000
7400000000A0000000
7400000000A0000000
7400000000A0000000
7400000000A0000000
7400000000B0000000
740000000074000000
74000000002E400000
740000000006FFFFF4
ENDCHAR
STARTCHAR .notdef
ENCODING -1
SWIDTH 1000 0
DWIDTH 24 0
BBX 1 1 0 0
BITMAP
00
ENDCHAR
ENDFONT
